<?xml version="1.0" encoding="utf-8"?>
<!-- Generator: Adobe Illustrator 27.0.0, SVG Export Plug-In . SVG Version: 6.00 Build 0)  -->
<svg version="1.1" id="Layer_1" xmlns="http://www.w3.org/2000/svg" xmlns:xlink="http://www.w3.org/1999/xlink" x="0px" y="0px"
	 viewBox="0 0 595.28 595.28" style="enable-background:new 0 0 595.28 595.28;" xml:space="preserve">
<style type="text/css">
	.st0{opacity:0.1;}
	.st1{fill:#594A42;}
	.st2{fill:#D1D3D4;}
	.st3{fill:#FFFFFF;}
	.st4{fill:#A59D8B;}
	.st5{opacity:0.6;fill:url(#SVGID_1_);}
	.st6{fill:#726658;}
	.st7{fill:none;}
</style>
<g>
	<path class="st0" d="M516.78,208.67c-0.64-0.47-1.46-1.03-2.44-1.63c0.17-0.09,0.32-0.21,0.41-0.37
		c20.18-35.23,28.49-76.98,23.82-117.31c-0.06-5.39-0.45-10.54-1.06-15.32c-0.54-3.4-0.99-6.63-1.72-9.6
		c-0.34-1.49-0.61-2.94-0.99-4.3c-0.39-1.36-0.76-2.67-1.12-3.92c-0.66-2.51-1.52-4.7-2.19-6.64c-0.35-0.97-0.65-1.87-0.97-2.69
		c-0.34-0.81-0.66-1.55-0.94-2.21c-1.14-2.65-1.77-4.12-1.77-4.12s0.5,1.52,1.4,4.26c0.23,0.68,0.48,1.44,0.76,2.27
		c0.26,0.84,0.49,1.76,0.77,2.74c0.52,1.98,1.23,4.19,1.73,6.71c0.28,1.25,0.57,2.56,0.88,3.93c0.3,1.37,0.49,2.81,0.76,4.3
		c0.02,0.12,0.04,0.24,0.06,0.36c-2.83-11.23-6.31-23.35-14.05-32.23c-1.4-1.61-2.94-3.06-4.59-4.34c0.01-0.03,0.02-0.06,0.03-0.09
		c0.4-1.2-0.28-2.03-1.18-2.3l0,0l0,0c-0.24-0.07-0.49-0.11-0.75-0.1c0,0-0.01,0-0.01,0c-0.12,0-0.23,0.02-0.35,0.04
		c-0.01,0-0.03,0-0.04,0.01c-0.1,0.02-0.21,0.05-0.31,0.09c-0.02,0.01-0.05,0.01-0.07,0.02c-0.09,0.04-0.17,0.08-0.26,0.13
		c-0.03,0.02-0.06,0.03-0.09,0.05c-0.02,0.01-0.03,0.02-0.05,0.04c-6.25-3.72-13.65-4.97-21.01-2.5
		c-11.45,3.84-18.96,13.86-24.75,24c-3.97,6.95-7.68,14.06-11.26,21.24c2.42-6.12,4.9-11.9,7.53-17.09
		c3.4-6.69,6.99-12.45,10.54-16.87c3.53-4.44,6.84-7.67,9.3-9.69c0.59-0.54,1.15-0.97,1.64-1.34c0.49-0.37,0.9-0.69,1.23-0.94
		c0.67-0.51,1.02-0.78,1.02-0.78s-0.37,0.24-1.08,0.69c-0.35,0.23-0.79,0.51-1.31,0.84c-0.52,0.33-1.12,0.72-1.75,1.21
		c-2.62,1.84-6.18,4.87-10.02,9.18c-3.85,4.3-7.79,9.99-11.46,16.69c-3.66,6.7-7,14.42-10.1,22.62c-2.75,7.31-5.25,14.34-7.77,20.73
		c-3.48,7.3-6.95,14.61-10.4,21.92c-2.49,4.17-4.8,7.42-6.59,9.62c-0.96,1.28-1.83,2.16-2.36,2.82c-0.55,0.64-0.84,0.98-0.84,0.98
		s0.31-0.31,0.91-0.9c0.58-0.61,1.52-1.43,2.58-2.64c1.07-1.13,2.31-2.57,3.67-4.3c-7.96,16.95-15.84,33.93-23.71,50.91
		c-0.2,0.07-0.39,0.15-0.58,0.22c-2.48,1.04-4.45,2.5-5.85,3.93c-0.73,0.69-1.26,1.44-1.74,2.06c-0.44,0.66-0.78,1.25-1.05,1.72
		c-0.04,0.09-0.07,0.15-0.1,0.23c-0.91,0.51-1.78,1.03-2.57,1.6c-1.4,1-2.6,2.07-3.64,3.13c-1.86,0.27-3.37,0.61-4.44,0.89
		c-1.22,0.35-1.89,0.55-1.89,0.55s0.68-0.15,1.92-0.42c0.99-0.2,2.34-0.42,3.98-0.6c-0.37,0.39-0.71,0.78-1.03,1.16
		c-0.18,0.22-0.38,0.44-0.55,0.65c-1.37,1.74-2.27,3.28-2.81,4.37c-0.55,1.09-0.8,1.72-0.8,1.72s0.39-0.55,1.13-1.5
		c0.73-0.95,1.87-2.27,3.41-3.73c0.86-0.83,1.89-1.69,3.04-2.54c0.16-0.12,0.33-0.23,0.5-0.35c0.58-0.02,1.18-0.03,1.8-0.03
		c-0.08,0.05-0.15,0.11-0.23,0.16c-1.28,0.74-2.53,1.49-3.73,2.23c-2.74,1.7-3.92,4.49-5.61,7.23c-4.88,7.91-9.72,15.86-14.5,23.84
		c-16.4,27.36-32.27,55.04-47.35,83.16c-2.56,4.77-4.81,9.27-6.31,14.19c-0.37-1.97-1.83-3.35-1.83-3.35s-0.2,0.39-0.38,0.99
		c-0.29-1.13-0.56-2.08-0.79-2.8c-0.35-1.08-0.54-1.68-0.54-1.68s0.05,0.63,0.15,1.76c0.11,1.13,0.24,2.76,0.39,4.77
		c0.3,4.02,0.56,9.55,0.59,15.64c0.01,1.52,0,3-0.02,4.44c-0.14,2.97-0.29,5.94-0.58,8.89c-0.04-0.27-0.07-0.54-0.12-0.81
		c-0.12-0.59-0.24-1.16-0.35-1.7c-0.2-1.09-0.52-2.04-0.76-2.88c-0.23-0.84-0.5-1.55-0.73-2.12c-0.45-1.13-0.71-1.76-0.71-1.76
		s0.12,0.67,0.33,1.87c0.12,0.6,0.25,1.32,0.33,2.18c0.09,0.86,0.26,1.81,0.3,2.89c0.04,0.53,0.07,1.1,0.11,1.68
		c0.04,0.58,0.02,1.19,0.03,1.82c0.05,1.25-0.05,2.59-0.1,4c-0.21,2.8-0.61,5.86-1.3,9.01c-0.03,0.11-0.06,0.22-0.08,0.33
		c-3.27,9.8-8.87,19.04-16.37,25.66c-2.05,1.81-4.26,3.38-6.61,4.74c-0.48,0.22-0.96,0.44-1.41,0.67c-2.44,1.22-4.53,2.48-6.24,3.59
		c-1.72,1.11-3.07,2.06-4,2.72c-0.92,0.68-1.43,1.05-1.43,1.05s0.58-0.25,1.63-0.7c1.04-0.46,2.54-1.13,4.4-1.95
		c3.09-1.34,7.14-3.17,11.77-4.59c-1.36,0.67-2.54,1.39-3.5,2.08c-0.59,0.39-1.07,0.81-1.5,1.16c-0.44,0.35-0.79,0.68-1.06,0.95
		c-0.21,0.21-0.38,0.38-0.51,0.51c-5.99,2.75-11.59,6.51-16.65,10.88c1.45-2.09,2.29-3.3,2.29-3.3s-2.24,2.13-5.59,5.84
		c-1.09,1.2-2.3,2.59-3.58,4.12c-0.82,0.89-1.62,1.79-2.4,2.71c-9.23,10.84-16.19,23.25-23.36,35.51c0.15-0.6,0.3-1.19,0.43-1.75
		c0.36-1.39,0.56-2.67,0.76-3.79c0.22-1.11,0.35-2.08,0.43-2.88c0.18-1.58,0.29-2.46,0.29-2.46s-0.24,0.85-0.67,2.38
		c-0.2,0.77-0.46,1.7-0.82,2.77c-0.35,1.07-0.7,2.3-1.2,3.62c-0.47,1.33-0.98,2.78-1.63,4.31c-0.58,1.55-1.33,3.14-2.07,4.84
		c-0.35,0.74-0.72,1.5-1.09,2.27c-2.39,3.87-4.86,7.68-7.51,11.37c-2.67,3.72-6.98,9.76-10.98,15.45c-0.61,0.64-1.2,1.22-1.72,1.77
		c-0.02,0.02-0.03,0.03-0.05,0.05c0-0.73-0.03-1.46-0.09-2.18c0.12-0.74,0.24-1.48,0.33-2.22c0.02-0.13-0.05-0.22-0.13-0.28
		c-0.04,0.03-0.07,0.05-0.11,0.08c-0.13-0.21-0.51-0.22-0.65,0.02c-0.31-1.48-0.79-2.91-1.45-4.24c-0.24-0.48-0.94-0.14-0.83,0.35
		c0.56,2.37,0.95,4.62,1.12,6.84c-0.12-0.14-0.24-0.29-0.38-0.42c-0.11-0.11-0.25-0.13-0.37-0.1c-0.08-0.02-0.16-0.01-0.24,0.02
		c-0.01-0.12-0.02-0.23-0.03-0.35c-0.05,0.04-0.11,0.08-0.16,0.12c-0.02-0.32-0.04-0.64-0.08-0.95c-0.06-0.54-0.78-0.55-0.84,0
		c-0.05,0.46-0.07,0.94-0.1,1.4c-0.05-0.01-0.1-0.03-0.16-0.04c-0.31-0.07-0.54,0.39-0.23,0.54c0.12,0.06,0.22,0.13,0.34,0.19
		c-0.08,1.19-0.12,2.4-0.12,3.63c-0.03-0.02-0.06-0.04-0.09-0.06c-0.33-0.44-0.69-0.85-1.12-1.2c-0.09-0.08-0.21-0.09-0.32-0.07
		c-0.21-0.04-0.44,0.08-0.49,0.26c-0.06-0.01-0.12-0.02-0.18-0.01c-0.17-0.03-0.35,0.03-0.5,0.14c-0.12-0.02-0.24-0.04-0.37-0.04
		c-0.01,0-0.02,0.01-0.03,0.01c-0.03,0-0.07-0.01-0.1-0.01c-0.39-0.01-0.41,0.51-0.09,0.64c0.1,0.04,0.2,0.09,0.3,0.13
		c-0.1,0.77-0.17,1.57-0.21,2.38c-0.77-0.8-1.66-1.47-2.63-1.96c-0.02,0.01-0.03,0.02-0.05,0.03c-1.08-0.56-2.26-0.88-3.49-0.88
		c-0.39,0-0.46,0.57-0.09,0.68c2.09,0.64,3.77,1.73,5.02,3.14c-0.38-0.14-0.77-0.26-1.17-0.33c-0.43-0.33-0.91-0.59-1.42-0.75
		c-0.1-0.03-0.19-0.03-0.28,0c-0.31,0.03-0.58,0.33-0.53,0.63c-1.17,0.1-2.3,0.46-3.2,1.09c-0.28,0.2-0.3,0.74,0.11,0.81
		c0.18,0.03,0.36,0.05,0.55,0.07c-1.87,0.43-3.57,1.49-4.43,3.13c-1.55,0.63-2.94,1.6-4,2.96c-0.16,0.21-0.04,0.55,0.17,0.6
		c0.07,0.02,0.15,0,0.24-0.06c2.76-1.99,5.79-3.07,8.84-2.99c-1.97,0.27-3.85,1.32-4.67,3.01c-0.13,0.27,0.09,0.54,0.33,0.53
		c0.09,0.01,0.18-0.02,0.26-0.1c1.49-1.38,3.05-2.05,4.65-2.12c0.15,0,0.29,0,0.44,0c-12.59,9.58-25.29,18.99-38.35,27.93
		c-1.48,1-2.97,1.98-4.45,2.97c-2.64,1.76-5.29,3.5-7.96,5.22c-3.35,2.17-6.71,4.32-10.09,6.44c-10.34,6.39-20.83,12.52-31.4,18.6
		c-0.06,0.03-0.05,0.09-0.02,0.13c-0.06,0.04-0.11,0.07-0.16,0.11c-0.01,0.01-0.02,0.02-0.03,0.03c-0.05,0.05-0.1,0.1-0.14,0.16
		c0,0.01-0.01,0.01-0.01,0.02c-0.04,0.06-0.08,0.13-0.11,0.19c0,0,0,0,0,0c-0.36,0.89,0.63,2.08,1.75,1.53
		c4.82-2.4,9.6-4.87,14.34-7.42c9.39-4.79,18.54-10.2,27.49-15.73c7.7-4.76,15.33-9.7,22.73-14.94
		c8.35-5.72,16.56-11.65,24.62-17.78l4,3.28c-0.27-1.91-0.53-3.83-0.8-5.74c1.39-1.08,2.79-2.15,4.17-3.24
		c0.04,0.03,0.08,0.06,0.13,0.07c0.28,0.09,0.55,0.18,0.82,0.28c0.09,0.31,0.45,0.4,0.76,0.31c0.62,0.27,1.22,0.6,1.77,1.04
		c0.86,0.68,1.58,1.56,2.32,2.37c0.14,0.16,0.38-0.01,0.34-0.2c-0.33-1.55-1.46-2.83-2.86-3.68c0.22,0.05,0.43,0.1,0.65,0.14
		c3.08,1.62,5.83,3.6,8.26,6.35c0.04,0.05,0.12-0.01,0.09-0.07c-1.46-2.24-3.38-4.27-5.6-5.83c2.42,0.62,4.81,1.32,7.1,2.53
		c4.33,2.28,7.72,5.44,11.15,8.88c0.22,0.22,0.62-0.07,0.44-0.34c-2.73-3.96-6.92-7.12-11.11-9.36c-0.86-0.46-1.76-0.92-2.68-1.36
		c1.62,0.05,3.25,0.04,4.87-0.03c5.2,0.56,10.41,1.2,15.63,1.55c0.17,0.01,0.21-0.28,0.04-0.3c-4.14-0.6-8.31-1.01-12.47-1.44
		c1.79-0.14,3.55-0.31,5.26-0.51c3.72-0.43,7.41-1.13,11.04-2.05c2.32-0.59,4.74-1.2,7.06-2.03c4.08-0.01,8.16-0.07,12.24-0.21
		c0.18-0.01,0.18-0.28,0-0.29c-3.63-0.11-7.26-0.06-10.89-0.03c1.04-0.42,2.05-0.9,3-1.45c0.17-0.1,0.14-0.3,0.02-0.4
		c4.34-1.41,8.62-3.04,12.78-4.92c2.2-1,4.36-2.09,6.5-3.23c4.47-1.53,8.88-3.22,13.22-5.06c0.59-0.19,1.17-0.37,1.76-0.57
		c7.04-2.42,13.55-5.28,19.31-8.18c2.85-1.52,5.56-2.93,8-4.45c1.22-0.74,2.43-1.43,3.54-2.15c1.11-0.73,2.17-1.44,3.19-2.11
		c2.05-1.31,3.79-2.67,5.36-3.8c0.78-0.58,1.51-1.1,2.16-1.61c0.64-0.52,1.23-1,1.76-1.43c2.1-1.72,3.27-2.68,3.27-2.68
		s-1.25,0.84-3.5,2.35c-0.56,0.38-1.18,0.8-1.86,1.27c-0.7,0.44-1.46,0.91-2.27,1.43c-1.64,1.01-3.46,2.22-5.57,3.39
		c-1.05,0.6-2.14,1.23-3.28,1.89c-1.14,0.65-2.37,1.26-3.62,1.93c-2.26,1.25-4.74,2.42-7.33,3.67
		c16.98-9.65,32.75-21.49,46.65-35.25c6.13-6.07,11.9-12.51,17.25-19.29c2.92-3.71,5.73-7.51,8.58-11.28
		c-1.14-0.29-2.3-0.58-3.5-0.89c-5.31-1.17-11.23-2.09-17.49-2.45c-6.27-0.29-12.25,0.01-17.65,0.63c-2.69,0.4-5.26,0.71-7.62,1.26
		c-1.18,0.26-2.34,0.45-3.43,0.73c-1.09,0.29-2.13,0.57-3.13,0.84c-2.01,0.48-3.76,1.14-5.33,1.64c-0.78,0.26-1.51,0.49-2.17,0.73
		c-0.65,0.26-1.25,0.5-1.79,0.72c-0.12,0.05-0.22,0.09-0.33,0.13c-0.1-0.05-0.2-0.08-0.29-0.12c0.17-0.08,0.34-0.16,0.52-0.25
		c0.52-0.25,1.11-0.53,1.74-0.84c0.65-0.29,1.37-0.56,2.13-0.87c1.54-0.6,3.27-1.37,5.27-1.95c0.99-0.32,2.03-0.65,3.12-1
		c1.09-0.34,2.25-0.58,3.44-0.89c1.84-0.51,3.83-0.87,5.9-1.24c0.16,0.04,0.32,0.08,0.47,0.13c-0.11-0.05-0.22-0.1-0.34-0.15
		c0.54-0.1,1.09-0.19,1.65-0.29c5.47-0.78,11.55-1.2,17.94-0.9c6.38,0.37,12.39,1.41,17.75,2.75c1.37,0.39,2.71,0.77,4,1.16
		c3.02-3.99,6.1-7.93,9.42-11.68c0.21,0.2,0.42,0.4,0.59,0.61c1.02,1.17,1.55,2.36,1.79,3.22c0.12,0.43,0.18,0.79,0.2,1.03
		c0.03,0.24,0.04,0.37,0.04,0.37s0.02-0.13,0.07-0.37c0.04-0.24,0.08-0.61,0.08-1.08c-0.01-0.9-0.26-2.25-1.05-3.7
		c0.37,0.42,0.69,0.82,0.92,1.17c0.3,0.44,0.5,0.8,0.62,1.06c0.13,0.25,0.2,0.39,0.2,0.39s-0.03-0.15-0.1-0.42
		c-0.06-0.28-0.17-0.69-0.37-1.21c-0.39-1.02-1.19-2.48-2.63-3.88c-1.41-1.43-3.42-2.76-5.76-3.89c-1.23-0.59-2.54-1.12-3.9-1.63
		c-6.02-2.79-12.65-4.14-19.35-4.26c-0.5-0.04-0.97-0.07-1.41-0.1c3.71-0.04,7.05,0.19,9.55,0.5c1.46,0.18,2.64,0.35,3.45,0.49
		c0.81,0.14,1.26,0.21,1.26,0.21s-0.45-0.1-1.25-0.28c-0.8-0.19-1.98-0.41-3.44-0.64c-2.04-0.32-4.66-0.6-7.59-0.68
		c2.27-0.15,4.69-0.18,7.21-0.02c3.2,0.24,6.23,0.75,8.94,1.39c1.34,0.36,2.63,0.68,3.8,1.1c1.19,0.36,2.26,0.79,3.25,1.19
		c1,0.36,1.85,0.8,2.62,1.15c0.77,0.34,1.41,0.68,1.93,0.97c1.05,0.56,1.63,0.87,1.63,0.87s-0.56-0.35-1.56-0.99
		c-0.5-0.33-1.12-0.71-1.88-1.09c-0.75-0.39-1.59-0.88-2.57-1.3c-0.97-0.45-2.04-0.93-3.22-1.34c-1.17-0.47-2.46-0.84-3.81-1.25
		c-2.73-0.73-5.8-1.3-9.06-1.55c-3.26-0.21-6.38-0.05-9.18,0.3c-1.36,0.21-2.65,0.4-3.84,0.69c-0.03,0-0.06,0-0.08,0.01
		c2.54-1.04,7.62-2.99,7.19-2.94c2.7-0.93,5.43-1.79,8.17-2.58c2.18-0.4,4.46-0.74,6.8-0.96c4.63-0.39,9.06-0.34,13.08-0.03
		c2,0.22,3.91,0.38,5.67,0.72c0.88,0.16,1.74,0.27,2.56,0.45c0.81,0.18,1.59,0.36,2.34,0.53c1.5,0.3,2.81,0.74,3.98,1.07
		c0.58,0.17,1.13,0.32,1.62,0.48c0.49,0.18,0.94,0.34,1.34,0.48c1.61,0.58,2.51,0.89,2.51,0.89s-0.88-0.36-2.46-1.02
		c-0.4-0.16-0.84-0.34-1.32-0.54c-0.49-0.18-1.03-0.35-1.61-0.55c-1.16-0.38-2.46-0.87-3.96-1.22c-0.74-0.19-1.52-0.4-2.33-0.61
		c-0.81-0.21-1.68-0.34-2.56-0.52c-1.77-0.39-3.69-0.6-5.71-0.87c-4.02-0.39-8.48-0.5-13.14-0.11c10.95-2.66,22.16-4.21,33.42-4.52
		c1.45-0.04,2.17,0.02,2.8-0.26c0.11,0,0.22,0,0.33,0c1.28-0.01,2.39,0.01,3.29,0.05c1.81,0.04,2.81,0.07,2.81,0.07
		s-0.99-0.17-2.78-0.47c-0.75-0.13-1.66-0.27-2.68-0.39c0.22-0.22,0.45-0.48,0.72-0.83c1.99-2.47,3.99-4.93,5.99-7.39
		c3.71-4.58,7.42-9.18,11.12-13.77c6.94-8.61,13.86-17.24,20.58-26.02c2.21-2.89,4.4-5.8,6.57-8.73c-2.15-0.6-4.5-1.11-7.03-1.47
		c-3.71-0.52-7.78-0.75-12.05-0.73c0.32-0.4,0.64-0.79,0.96-1.19c1.17,0.11,2.16,0.22,2.91,0.33c1.12,0.15,1.73,0.23,1.73,0.23
		s-0.61-0.11-1.72-0.3c-0.72-0.13-1.68-0.27-2.81-0.41c0.34-0.43,0.66-0.86,0.99-1.29c5.29,0.48,10.3,1.26,14.83,2.19
		c1.21,0.27,2.39,0.53,3.53,0.8c10.63-14.43,20.62-29.37,29.01-45.24c0.22-0.42,0.44-0.85,0.66-1.28c-2.42,0.05-4.94,0.23-7.56,0.36
		c-5.29,0.45-10.96,1.21-16.8,2.39c0.2-0.6,0.4-1.21,0.58-1.81c5.61-1.05,11.05-1.69,16.13-2.01c2.89-0.09,5.65-0.21,8.29-0.16
		c2.12-4.11,4.14-8.28,6.03-12.51c2.12-4.74,4.44-9.66,4.93-14.9c0.1-1.07,0.1-2.12,0-3.15c0.03-0.31,0.05-0.63,0.05-0.95
		c0-1.55-0.25-3.02-0.63-4.31c0.82,1.16,1.54,2.3,2.18,3.41c0.82,1.5,1.51,2.91,1.98,4.15c0.27,0.61,0.44,1.19,0.62,1.69
		c0.19,0.5,0.32,0.94,0.42,1.31c0.22,0.73,0.34,1.14,0.34,1.14s0.02-0.42,0.05-1.19c0.02-0.39,0.02-0.86-0.02-1.41
		c-0.04-0.55-0.06-1.18-0.19-1.87c0-0.01-0.01-0.03-0.01-0.05c-0.19-1.38-0.61-2.98-1.27-4.7c-0.71-1.72-1.69-3.54-2.99-5.26
		c-0.28-0.35-0.57-0.69-0.86-1.02c0.24,0.18,0.5,0.35,0.72,0.53c0.89,0.64,1.68,1.3,2.39,1.9c0.74,0.58,1.34,1.19,1.9,1.69
		c0.57,0.5,1.02,0.96,1.38,1.35c0.75,0.76,1.17,1.18,1.17,1.18s-0.31-0.51-0.86-1.43c-0.28-0.47-0.63-1.02-1.09-1.63
		c-0.46-0.61-0.95-1.35-1.6-2.06c-0.63-0.74-1.33-1.54-2.16-2.33c-0.8-0.83-1.74-1.6-2.73-2.43c-2.03-1.58-4.44-3.13-7.14-4.39
		c-2.53-1.15-5.07-1.92-7.45-2.43c1.97,0.06,3.86,0.18,5.64,0.43c3.11,0.42,5.85,1.19,8,2.2c2.15,1,3.69,2.2,4.63,3.14
		c0.49,0.45,0.81,0.86,1.04,1.13c0.23,0.27,0.35,0.41,0.35,0.41s-0.11-0.15-0.32-0.43c-0.21-0.28-0.51-0.72-0.97-1.2
		c-0.89-1-2.38-2.31-4.54-3.43c-2.14-1.13-4.92-2.02-8.08-2.53c-3.16-0.53-6.67-0.65-10.33-0.61c-1.96,0.02-3.87,0.11-5.7,0.25
		c-0.55,0.01-1.11,0.03-1.67,0.06c-0.26-0.04-0.52-0.08-0.79-0.11c-0.29,0.07-0.57,0.15-0.86,0.23c-0.38,0.04-0.76,0.07-1.14,0.12
		c-0.8,0.11-1.58,0.24-2.36,0.39c0.09-0.06,0.18-0.13,0.27-0.19c0.64-0.11,1.31-0.22,2-0.32c2.56-0.35,4.91-0.49,6.62-0.51
		c1.71-0.02,2.78,0.02,2.78,0.02s-1.04-0.25-2.76-0.44c-0.84-0.09-1.84-0.16-2.95-0.16c0.78-0.14,1.57-0.29,2.37-0.4
		c9.26-1.28,17.83-0.05,23.77,1.66c2.98,0.84,5.35,1.73,6.96,2.42c0.82,0.32,1.42,0.63,1.85,0.81c0.42,0.19,0.65,0.29,0.65,0.29
		s-0.2-0.13-0.59-0.38c-0.39-0.24-0.96-0.64-1.73-1.07c-1.51-0.91-3.79-2.1-6.74-3.27c-2.95-1.17-6.61-2.25-10.79-2.87
		c-4.17-0.63-8.87-0.75-13.72-0.1c-0.14,0.02-0.28,0.05-0.42,0.07c3.5-1.64,7.78-3.1,12.53-3.87c4.96-0.59,9.95-0.58,14.86,0.09
		c3,0.5,5.7,1.22,7.92,2.03c2.48,0.88,4.44,1.78,5.76,2.47c0.67,0.32,1.17,0.63,1.52,0.81c0.35,0.19,0.53,0.29,0.53,0.29
		s-0.16-0.13-0.47-0.38C517.84,209.49,517.4,209.1,516.78,208.67z M261.86,492.24c-0.77,0.22-1.53,0.44-2.3,0.65
		c-8.19,2.46-16.53,4.44-24.95,5.94c1.81,0.06,3.62,0.16,5.43,0.25c-0.02,0.01-0.05,0.01-0.07,0.02c-1.92-0.09-3.83-0.19-5.76-0.26
		c8.35-1.5,16.61-3.48,24.73-5.94c1.42-0.39,2.84-0.79,4.26-1.21C262.77,491.88,262.31,492.05,261.86,492.24z M308.55,390.96
		c0.72,0,1.45,0.01,2.17,0.04c0,0,0,0,0,0c-0.02,0.01-0.04,0.02-0.06,0.04C309.96,391,309.26,390.98,308.55,390.96z M403.88,181.53
		c0.04-0.04,0.08-0.06,0.14-0.11c0.21-0.15,0.49-0.41,0.88-0.68c1.02-0.24,2.04-0.43,3.04-0.56c-0.95,0.29-1.9,0.62-2.84,0.98
		C404.69,181.27,404.28,181.4,403.88,181.53z M464.93,211.95c0.87-0.05,1.73-0.07,2.55-0.06
		C466.65,211.88,465.8,211.91,464.93,211.95z M466.83,212.87c-0.05,0.05-0.09,0.09-0.14,0.14c-0.19,0.03-0.39,0.06-0.58,0.09
		C466.35,213.02,466.59,212.95,466.83,212.87z M414.68,177.74c2.04,0.2,3.89,0.61,5.53,1.11c1.74,0.16,3.36,0.62,4.85,1.3
		c0.45,0.31,0.89,0.63,1.3,0.98c0.66,0.85,1.26,1.74,1.78,2.69c-2.62-2.72-5.94-4.58-9.91-4.96c-1.62-0.5-3.45-0.91-5.48-1.11
		c-0.3-0.03-0.6-0.05-0.91-0.07c1.49-0.31,3.14-0.46,4.86-0.36c-1.02,0.05-2.01,0.17-2.94,0.36
		C414.08,177.69,414.38,177.71,414.68,177.74z M424.83,197.37C424.83,197.37,424.83,197.37,424.83,197.37
		c0.51,0.62,1.01,1.25,1.48,1.9c0,0-0.01,0.01-0.01,0.01C425.83,198.63,425.34,197.99,424.83,197.37z M449.44,220.74
		c-0.16,0.08-0.32,0.15-0.47,0.24c0.39-0.29,0.78-0.58,1.18-0.87C449.9,220.32,449.66,220.53,449.44,220.74z M402.47,185.48
		c-1.11-0.07-2.22-0.09-3.32-0.04C400.25,185.39,401.36,185.4,402.47,185.48z M406.04,185.93c0.62,0.12,1.22,0.26,1.83,0.42
		C407.27,186.19,406.66,186.05,406.04,185.93c-0.52-0.1-1.05-0.18-1.57-0.25C405,185.75,405.52,185.83,406.04,185.93z
		 M404.07,185.63c-0.42-0.05-0.84-0.09-1.26-0.13C403.23,185.54,403.65,185.58,404.07,185.63z M410.07,187.01
		c-0.59-0.2-1.18-0.38-1.78-0.55C408.88,186.62,409.48,186.8,410.07,187.01z M420.88,193.32c-1.06-0.92-2.17-1.78-3.32-2.56
		C418.72,191.55,419.83,192.4,420.88,193.32z M417.55,190.76c-0.57-0.38-1.14-0.75-1.73-1.09
		C416.41,190.01,416.99,190.38,417.55,190.76z M415.71,189.61c-0.56-0.33-1.14-0.64-1.72-0.94
		C414.58,188.96,415.15,189.28,415.71,189.61z M413.92,188.63c-0.58-0.29-1.16-0.56-1.76-0.81
		C412.76,188.07,413.35,188.34,413.92,188.63z M411.87,187.7c-0.56-0.23-1.12-0.45-1.7-0.65
		C410.75,187.24,411.31,187.46,411.87,187.7z M453.12,213.58c1.94-0.37,3.87-0.71,5.77-0.99C457,212.87,455.06,213.21,453.12,213.58
		z M459.29,212.53c0.8-0.12,1.6-0.22,2.39-0.31C460.89,212.31,460.1,212.42,459.29,212.53z M462.21,212.17
		c0.77-0.08,1.52-0.14,2.26-0.19C463.73,212.03,462.98,212.09,462.21,212.17z M450.4,214.11c0.61-0.12,1.23-0.24,1.84-0.36
		C451.63,213.87,451.02,213.99,450.4,214.11z M418.16,175.02c-0.09-0.01-0.17-0.01-0.26-0.01c0.06,0,0.11-0.01,0.17-0.01
		C418.1,175,418.13,175.01,418.16,175.02z M354.76,381.96C354.76,381.96,354.76,381.96,354.76,381.96L354.76,381.96
		C354.77,381.96,354.76,381.96,354.76,381.96z M471.08,209.16c-1.76,0.43-3.44,0.94-5.05,1.53c2.16-0.99,4.37-1.87,6.63-2.67
		C472.1,208.4,471.58,208.78,471.08,209.16z M398.88,179.6c0.57-0.5,1.18-1.09,1.95-1.62c2.85-2.12,7.54-4.06,12.77-3.79
		c-4.48,0.22-8.42,1.94-10.94,3.79c-0.57,0.39-1.05,0.8-1.49,1.2c-1.12,0.41-2.2,0.88-3.22,1.41
		C398.23,180.28,398.53,179.96,398.88,179.6z M394.17,185.43c2.68-1.8,5.96-3.45,9.7-4.46c0.15-0.04,0.29-0.06,0.44-0.1
		c-0.14,0.19-0.26,0.35-0.36,0.47c-0.07,0.1-0.12,0.17-0.17,0.22c-2.93,0.99-5.53,2.34-7.75,3.8
		C395.39,185.37,394.77,185.39,394.17,185.43z M294.68,392.74c1.69-0.49,3.55-0.96,5.53-1.34c1.98-0.36,3.89-0.59,5.64-0.73
		c1.5-0.1,2.88-0.14,4.1-0.13c-0.96,0.01-1.99,0.05-3.09,0.13c-1.77,0.15-3.69,0.38-5.69,0.73c-0.17,0.03-0.34,0.07-0.51,0.1
		c-3.19,0.49-6.32,1.3-9.36,2.39C292.31,393.51,293.45,393.12,294.68,392.74z M213.41,501.54c6.1-0.49,12.17-1.24,18.21-2.25
		c0.11,0,0.21,0.01,0.32,0.01c-6.07,1-12.18,1.75-18.31,2.24c0.9,0.01,1.79,0.02,2.69,0.03
		C215.35,501.56,214.38,501.56,213.41,501.54z M243.54,499.72c0.05,0,0.1,0,0.15,0c-0.31,0.1-0.62,0.2-0.94,0.29
		c-5.35,1.3-10.92,2.31-16.53,2.86c-0.24,0.01-0.48,0.04-0.72,0.05C231.64,502.34,237.73,501.21,243.54,499.72z"/>
	<g>
		<path class="st1" d="M449.07,254.67c-7.02,0.83-14.68,2.22-22.52,4.43c-7.82,2.3-15.05,5.2-21.43,8.23
			c-3.14,1.62-6.17,3.09-8.84,4.75c-1.35,0.81-2.69,1.53-3.91,2.33c-1.22,0.81-2.38,1.59-3.5,2.33c-2.27,1.43-4.15,2.97-5.86,4.24
			c-0.85,0.65-1.65,1.23-2.36,1.8c-0.69,0.59-1.33,1.14-1.9,1.62c-2.29,1.95-3.56,3.03-3.56,3.03s1.2-1.15,3.38-3.22
			c0.55-0.52,1.15-1.09,1.82-1.72c0.68-0.61,1.46-1.23,2.28-1.92c1.66-1.35,3.48-2.98,5.71-4.51c1.09-0.79,2.24-1.62,3.43-2.48
			c1.2-0.85,2.53-1.62,3.86-2.48c2.65-1.77,5.66-3.33,8.8-5.04c6.38-3.21,13.67-6.25,21.6-8.58c7.95-2.24,15.74-3.55,22.85-4.23
			c2.87-0.18,5.61-0.38,8.23-0.42c1.98-4.15,3.85-8.36,5.6-12.62c1.96-4.78,4.11-9.73,4.43-14.96c0.07-1.07,0.03-2.11-0.09-3.12
			c0.01-0.31,0.03-0.62,0.02-0.94c-0.05-1.54-0.35-2.99-0.76-4.26c0.85,1.12,1.6,2.24,2.27,3.32c0.87,1.47,1.59,2.85,2.1,4.06
			c0.29,0.6,0.47,1.16,0.67,1.66c0.2,0.49,0.35,0.93,0.46,1.29c0.24,0.72,0.37,1.12,0.37,1.12s0-0.42,0.01-1.19
			c0.01-0.39,0-0.86-0.07-1.4c-0.06-0.54-0.1-1.17-0.25-1.85c0-0.01-0.01-0.03-0.01-0.04c-0.23-1.36-0.7-2.94-1.41-4.63
			c-0.75-1.69-1.79-3.47-3.14-5.13c-0.29-0.34-0.58-0.67-0.88-0.98c0.25,0.17,0.51,0.33,0.74,0.5c0.91,0.61,1.71,1.24,2.44,1.82
			c0.76,0.55,1.37,1.14,1.94,1.62c0.58,0.48,1.04,0.92,1.42,1.3c0.77,0.73,1.2,1.14,1.2,1.14s-0.32-0.5-0.9-1.39
			c-0.29-0.45-0.66-1-1.14-1.59c-0.47-0.6-0.99-1.31-1.66-2c-0.65-0.72-1.37-1.49-2.22-2.24c-0.82-0.8-1.78-1.54-2.79-2.33
			c-2.07-1.51-4.5-2.97-7.23-4.14c-2.55-1.06-5.1-1.74-7.47-2.17c1.96,0,3.84,0.06,5.61,0.25c3.1,0.32,5.85,0.99,8.01,1.93
			c2.17,0.92,3.73,2.07,4.7,2.97c0.5,0.43,0.83,0.83,1.07,1.09c0.24,0.26,0.36,0.4,0.36,0.4s-0.11-0.14-0.33-0.42
			c-0.22-0.27-0.53-0.69-1.01-1.16c-0.92-0.96-2.44-2.22-4.62-3.26c-2.16-1.06-4.96-1.85-8.1-2.25c-3.15-0.43-6.65-0.44-10.28-0.28
			c-1.95,0.08-3.84,0.23-5.66,0.43c-1.07,0.05-2.14,0.13-3.25,0.27c-0.39,0.05-0.78,0.1-1.17,0.16c-0.79,0.13-1.57,0.29-2.33,0.46
			c0.09-0.07,0.18-0.13,0.26-0.2c0.64-0.13,1.3-0.26,1.98-0.38c2.54-0.43,4.86-0.64,6.56-0.72c1.7-0.08,2.76-0.07,2.76-0.07
			s-1.04-0.22-2.75-0.35c-1.71-0.14-4.11-0.13-6.71,0.31c-0.9,0.16-1.75,0.35-2.55,0.57c-6.97,0.13-15.51,2.49-23.21,4.19
			c1.78-0.48,3.69-1,5.68-1.57c9.43-2.7,16.97-5.29,16.97-5.29s-7.76,1.78-17.2,4.48c-4.69,1.34-8.9,2.65-11.96,3.63
			c-0.01,0-0.01,0-0.02,0c1.37-0.44,2.95-0.96,4.63-1.58c5.05-1.85,8.99-3.74,8.99-3.74s-4.24,1.1-9.28,2.95
			c-2.65,0.97-4.99,1.95-6.62,2.66c-0.13,0.01-0.28,0.03-0.41,0.05c0.2-0.17,0.41-0.33,0.63-0.51c2.13-1.72,5.25-3.88,8.97-5.77
			c3.72-1.88,7.3-3.12,9.96-3.82c1.32-0.35,2.41-0.61,3.17-0.75c0.76-0.15,1.17-0.24,1.17-0.24s-0.43,0.04-1.19,0.11
			c-0.77,0.06-1.88,0.21-3.24,0.46c-2.72,0.5-6.45,1.56-10.24,3.48c-3.79,1.93-6.85,4.3-8.86,6.2c-0.33,0.31-0.62,0.59-0.9,0.87
			c-0.52,0.04-1.04,0.08-1.53,0.09c-0.19-2.45-0.7-4.85-1.47-7.17c-0.27-2.58-0.94-5.74-2.32-8.95c-1.68-3.99-4.08-7.15-5.99-9.2
			c-0.97-1.02-1.81-1.79-2.4-2.3c-0.6-0.5-0.94-0.78-0.94-0.78s0.3,0.31,0.85,0.87c0.54,0.56,1.3,1.4,2.17,2.48
			c1.73,2.17,3.89,5.37,5.53,9.26c0.23,0.53,0.44,1.07,0.64,1.59c-0.23-0.51-0.46-1.01-0.73-1.53c-1.43-2.76-3.47-5.57-6.09-8.04
			c-2.65-2.44-5.59-4.28-8.44-5.52c-2.85-1.25-5.58-1.95-7.89-2.27c-2.32-0.33-4.21-0.37-5.52-0.3c-0.65,0.01-1.15,0.08-1.5,0.1
			c-0.34,0.03-0.52,0.04-0.52,0.04s0.18,0,0.52-0.01c0.34,0,0.85-0.04,1.5,0c1.3,0.02,3.17,0.15,5.44,0.59
			c4.51,0.83,10.68,3.2,15.83,7.99c3.25,3.04,5.56,6.55,7.1,9.84c-1.17-2.03-2.55-3.95-4.11-5.71c-0.17-0.23-0.34-0.46-0.54-0.69
			c-0.73-0.88-1.63-1.75-2.68-2.58c-0.27-0.21-0.54-0.42-0.83-0.63c-4.32-3.53-9.47-6-14.97-6.88c-2.28-0.36-4.58-0.44-6.87-0.27
			c-2.75-0.08-5.26,0.1-7.33,0.43c-2.23,0.36-4,0.81-5.2,1.17c-1.2,0.39-1.86,0.6-1.86,0.6s0.67-0.17,1.89-0.48
			c1.22-0.28,3-0.63,5.22-0.88c1.04-0.11,2.19-0.19,3.41-0.22c-1.34,0.83-2.65,1.67-3.9,2.5c-2.67,1.77-3.75,4.59-5.34,7.36
			c-4.6,8.02-9.15,16.06-13.65,24.13c-15.43,27.69-30.32,55.68-44.41,84.09c-2.39,4.82-4.49,9.36-5.82,14.3
			c-0.43-1.94-1.92-3.27-1.92-3.27s-0.18,0.39-0.35,0.99c-0.32-1.11-0.63-2.05-0.88-2.75c-0.38-1.06-0.59-1.65-0.59-1.65
			s0.07,0.62,0.21,1.74c0.15,1.12,0.33,2.74,0.54,4.73c0.43,3.98,0.85,9.46,1.08,15.51c0.05,1.51,0.09,2.98,0.12,4.41
			c-0.04,2.95-0.1,5.91-0.29,8.85c-0.04-0.27-0.09-0.54-0.15-0.8c-0.14-0.58-0.28-1.14-0.4-1.68c-0.23-1.07-0.58-2.01-0.85-2.83
			c-0.26-0.83-0.54-1.52-0.79-2.08c-0.49-1.11-0.76-1.73-0.76-1.73s0.14,0.66,0.38,1.85c0.14,0.59,0.29,1.31,0.4,2.16
			c0.12,0.85,0.31,1.79,0.39,2.86c0.05,0.53,0.11,1.09,0.17,1.66c0.05,0.58,0.05,1.19,0.09,1.81c0.09,1.24,0.04,2.58,0.03,3.97
			c-0.12,2.79-0.42,5.84-1.01,8.99c-0.02,0.11-0.05,0.22-0.07,0.33c-2.94,9.84-8.21,19.19-15.45,26.01
			c-1.98,1.86-4.12,3.49-6.41,4.91c-0.47,0.23-0.94,0.47-1.38,0.71c-2.38,1.28-4.42,2.6-6.09,3.76c-1.67,1.15-2.98,2.14-3.88,2.83
			c-0.89,0.7-1.39,1.09-1.39,1.09s0.57-0.27,1.59-0.75c1.02-0.49,2.49-1.2,4.31-2.07c3.03-1.43,6.99-3.37,11.54-4.93
			c-1.33,0.71-2.48,1.46-3.41,2.18c-0.57,0.41-1.04,0.84-1.45,1.2c-0.42,0.36-0.76,0.7-1.03,0.98c-0.21,0.22-0.36,0.38-0.49,0.52
			c-5.86,2.92-11.31,6.83-16.19,11.33c1.38-2.12,2.17-3.35,2.17-3.35s-2.16,2.19-5.37,5.98c-1.04,1.23-2.2,2.65-3.42,4.2
			c-0.79,0.91-1.56,1.83-2.3,2.77c-8.83,11.06-15.34,23.6-22.09,36.01c0.13-0.6,0.26-1.19,0.37-1.75c0.31-1.39,0.47-2.67,0.64-3.78
			c0.18-1.11,0.28-2.08,0.34-2.87c0.13-1.58,0.21-2.45,0.21-2.45s-0.21,0.85-0.59,2.38c-0.18,0.77-0.41,1.7-0.73,2.77
			c-0.31,1.07-0.62,2.3-1.08,3.63c-0.42,1.34-0.89,2.79-1.48,4.33c-0.53,1.55-1.22,3.17-1.91,4.87c-0.32,0.75-0.66,1.51-1.01,2.29
			c-2.25,3.92-4.59,7.78-7.1,11.53c-2.53,3.78-6.63,9.91-10.42,15.69c-0.59,0.66-1.15,1.25-1.66,1.81
			c-0.08,0.09-0.16,0.17-0.24,0.26c-0.02-0.79-0.07-1.58-0.17-2.36c0.09-0.74,0.19-1.48,0.25-2.21c0.04-0.39-0.53-0.46-0.69-0.16
			c-0.36-1.46-0.88-2.87-1.58-4.17c-0.25-0.47-0.94-0.11-0.81,0.38c0.65,2.42,1.12,4.71,1.36,6.98c-0.19-0.22-0.38-0.43-0.6-0.63
			c-0.19-0.18-0.45-0.12-0.59,0.04c-0.05-0.42-0.09-0.86-0.15-1.27c-0.08-0.54-0.8-0.52-0.83,0.03c-0.03,0.45-0.04,0.93-0.06,1.4
			c-0.05-0.01-0.1-0.03-0.16-0.04c-0.31-0.06-0.53,0.4-0.21,0.55c0.12,0.05,0.22,0.12,0.34,0.18c-0.04,1.23-0.04,2.46,0,3.72
			c-0.08-0.05-0.16-0.11-0.25-0.17c-0.33-0.42-0.7-0.82-1.14-1.16c-0.25-0.19-0.65-0.01-0.67,0.25c-0.2-0.1-0.47-0.05-0.67,0.12
			c-0.16-0.01-0.31-0.04-0.48-0.04c-0.39,0-0.39,0.52-0.07,0.64c0.1,0.04,0.2,0.08,0.3,0.12c-0.07,0.81-0.13,1.64-0.14,2.49
			c-1.68-1.69-3.89-2.79-6.21-2.71c-0.39,0.01-0.44,0.58-0.07,0.68c2.13,0.58,3.86,1.63,5.15,3.02c-0.44-0.16-0.89-0.28-1.35-0.35
			c-0.44-0.31-0.91-0.56-1.43-0.7c-0.38-0.11-0.75,0.29-0.68,0.65c-1.16,0.13-2.27,0.53-3.15,1.19c-0.27,0.21-0.27,0.74,0.13,0.8
			c0.18,0.03,0.36,0.04,0.55,0.05c-1.84,0.48-3.5,1.59-4.31,3.24c-1.52,0.67-2.87,1.68-3.88,3.07c-0.2,0.28,0.09,0.78,0.43,0.52
			c2.68-2.09,5.67-3.25,8.7-3.25c-1.96,0.33-3.78,1.43-4.56,3.14c-0.16,0.36,0.27,0.7,0.56,0.41c2.85-2.83,6.06-2.85,9.41-0.97
			c0.24,0.13,0.48-0.12,0.4-0.35c0.22,0.11,0.43,0.15,0.65,0.1c-0.06,0.23,0.04,0.52,0.31,0.59c0.28,0.08,0.55,0.16,0.82,0.25
			c0.1,0.3,0.46,0.39,0.76,0.28c0.63,0.25,1.23,0.56,1.79,0.98c0.88,0.65,1.62,1.5,2.38,2.29c0.15,0.15,0.37-0.02,0.33-0.21
			c-0.38-1.52-1.54-2.77-2.96-3.56c0.22,0.04,0.43,0.09,0.65,0.12c3.11,1.51,5.91,3.39,8.41,6.05c0.04,0.05,0.12-0.02,0.09-0.07
			c-1.52-2.18-3.49-4.13-5.75-5.62c2.42,0.54,4.82,1.16,7.13,2.29c4.37,2.13,7.84,5.16,11.35,8.47c0.22,0.21,0.62-0.09,0.42-0.35
			c-2.84-3.85-7.1-6.86-11.33-8.94c-0.87-0.43-1.78-0.86-2.71-1.26c1.61,0,3.23-0.07,4.84-0.18c5.18,0.39,10.38,0.86,15.57,1.05
			c0.17,0.01,0.2-0.28,0.03-0.3c-4.13-0.46-8.29-0.75-12.43-1.04c1.77-0.19,3.52-0.42,5.2-0.67c3.68-0.54,7.33-1.35,10.91-2.38
			c2.28-0.65,4.67-1.34,6.95-2.24c4.05-0.14,8.11-0.33,12.15-0.59c0.18-0.01,0.17-0.28-0.01-0.28c-3.61,0-7.21,0.17-10.82,0.32
			c1.02-0.45,2-0.96,2.93-1.54c0.16-0.1,0.13-0.3,0.01-0.4c4.27-1.54,8.46-3.29,12.54-5.29c2.16-1.06,4.27-2.22,6.36-3.41
			c4.39-1.66,8.72-3.48,12.97-5.45c0.58-0.2,1.15-0.41,1.73-0.62c6.92-2.62,13.3-5.67,18.92-8.74c2.78-1.6,5.43-3.09,7.81-4.67
			c1.19-0.78,2.37-1.49,3.45-2.25c1.08-0.76,2.11-1.5,3.1-2.2c2-1.37,3.68-2.77,5.2-3.95c0.75-0.6,1.46-1.14,2.09-1.67
			c0.62-0.54,1.19-1.03,1.7-1.47c2.03-1.78,3.16-2.76,3.16-2.76s-1.21,0.87-3.4,2.45c-0.54,0.4-1.15,0.84-1.81,1.32
			c-0.68,0.46-1.42,0.95-2.21,1.49c-1.6,1.05-3.36,2.31-5.43,3.54c-1.02,0.63-2.09,1.29-3.2,1.98c-1.11,0.69-2.32,1.33-3.53,2.03
			c-2.2,1.31-4.64,2.55-7.16,3.88c16.56-10.12,31.85-22.38,45.22-36.48c5.9-6.22,11.43-12.8,16.52-19.71
			c2.79-3.78,5.46-7.64,8.17-11.47c-1.14-0.26-2.31-0.5-3.5-0.77c-5.31-1-11.22-1.72-17.45-1.88c-6.24-0.09-12.17,0.4-17.52,1.18
			c-2.66,0.48-5.2,0.87-7.53,1.49c-1.17,0.29-2.31,0.52-3.38,0.83c-1.07,0.32-2.1,0.63-3.08,0.93c-1.98,0.54-3.7,1.25-5.24,1.8
			c-0.76,0.29-1.49,0.53-2.13,0.79c-0.64,0.28-1.23,0.54-1.75,0.77c-2.11,0.92-3.28,1.43-3.28,1.43s1.13-0.59,3.17-1.67
			c0.51-0.27,1.08-0.56,1.71-0.89c0.63-0.31,1.34-0.6,2.09-0.93c1.51-0.64,3.2-1.46,5.17-2.11c0.98-0.35,2-0.71,3.06-1.09
			c1.07-0.37,2.21-0.65,3.38-0.99c2.33-0.73,4.89-1.21,7.58-1.78c5.4-0.95,11.44-1.55,17.79-1.46c6.35,0.16,12.35,1.01,17.71,2.18
			c1.38,0.35,2.72,0.68,4.01,1.02c2.88-4.06,5.81-8.07,8.99-11.9c0.21,0.19,0.43,0.39,0.61,0.59c1.05,1.13,1.61,2.29,1.88,3.15
			c0.13,0.43,0.2,0.78,0.23,1.01c0.03,0.24,0.05,0.37,0.05,0.37s0.02-0.13,0.06-0.37c0.03-0.24,0.06-0.61,0.04-1.08
			c-0.04-0.9-0.33-2.23-1.16-3.64c0.38,0.4,0.71,0.79,0.95,1.13c0.31,0.43,0.52,0.78,0.65,1.03c0.14,0.25,0.21,0.38,0.21,0.38
			s-0.04-0.14-0.11-0.42c-0.06-0.28-0.19-0.68-0.41-1.19c-0.42-1-1.26-2.43-2.74-3.77c-1.45-1.37-3.49-2.63-5.85-3.68
			c-1.24-0.54-2.56-1.03-3.93-1.49c-6.07-2.58-12.7-3.71-19.36-3.63c-1.03-0.05-1.94-0.07-2.71-0.08c0.48-0.08,0.96-0.15,1.45-0.23
			c2.75-0.35,5.79-0.54,8.98-0.44c3.19,0.14,6.21,0.55,8.92,1.1c1.35,0.32,2.64,0.59,3.81,0.97c1.19,0.32,2.27,0.71,3.26,1.08
			c1,0.33,1.86,0.74,2.63,1.06c0.78,0.31,1.43,0.63,1.95,0.9c1.06,0.53,1.64,0.82,1.64,0.82s-0.56-0.33-1.58-0.93
			c-0.51-0.31-1.14-0.67-1.9-1.03c-0.76-0.37-1.6-0.83-2.59-1.21c-0.98-0.42-2.05-0.86-3.24-1.23c-1.17-0.43-2.47-0.75-3.83-1.12
			c-2.74-0.64-5.8-1.11-9.05-1.25c-3.25-0.1-6.34,0.15-9.11,0.58c-1.38,0.26-2.7,0.49-3.9,0.83c-0.01,0-0.02,0.01-0.03,0.01
			c2.47-1.1,7.53-3.24,7.11-3.17c2.65-1.01,5.34-1.95,8.04-2.82c2.15-0.47,4.4-0.87,6.73-1.17c4.59-0.54,8.99-0.62,12.99-0.44
			c1.99,0.16,3.9,0.26,5.66,0.54c0.88,0.13,1.74,0.21,2.55,0.36c0.81,0.16,1.59,0.31,2.34,0.45c1.5,0.25,2.82,0.65,3.99,0.94
			c0.58,0.15,1.13,0.28,1.63,0.43c0.49,0.16,0.94,0.3,1.35,0.44c1.62,0.52,2.52,0.81,2.52,0.81s-0.88-0.33-2.48-0.93
			c-0.4-0.15-0.84-0.32-1.33-0.5c-0.49-0.17-1.03-0.32-1.61-0.5c-1.16-0.34-2.47-0.79-3.97-1.09c-0.74-0.17-1.52-0.35-2.34-0.53
			c-0.81-0.18-1.68-0.29-2.56-0.44c-1.77-0.34-3.68-0.48-5.69-0.68c-4.01-0.26-8.44-0.23-13.05,0.31
			c10.79-2.99,21.88-4.88,33.06-5.54c1.44-0.09,2.15-0.05,2.77-0.35c0.11,0,0.22-0.01,0.32-0.01c1.27-0.05,2.37-0.07,3.27-0.06
			c1.8-0.01,2.8-0.02,2.8-0.02s-0.99-0.13-2.77-0.37c-0.75-0.11-1.65-0.21-2.68-0.3c0.21-0.23,0.43-0.49,0.69-0.84
			c1.9-2.51,3.81-5.02,5.71-7.53c3.55-4.67,7.08-9.35,10.61-14.03c6.62-8.77,13.22-17.56,19.63-26.49c2.11-2.94,4.19-5.9,6.25-8.87
			c-2.15-0.53-4.5-0.96-7.02-1.24c-4.48-0.48-9.45-0.55-14.66-0.23c-10.44,0.66-19.83,2.17-26.57,3.52
			c-3.37,0.67-6.09,1.31-7.96,1.76c-1.87,0.46-2.91,0.72-2.91,0.72s1.01-0.35,2.84-0.97c1.83-0.61,4.5-1.45,7.85-2.33
			c5.77-1.53,13.59-3.19,22.43-4.05c-2.85,0-5.59,0.07-8.2,0.18c-2.44,0.16-4.77,0.27-6.94,0.5c-2.17,0.17-4.19,0.43-6.03,0.67
			c-1.85,0.2-3.5,0.5-4.96,0.72c-1.46,0.21-2.71,0.44-3.73,0.65c-2.05,0.38-3.18,0.6-3.18,0.6s1.11-0.3,3.12-0.85
			c1-0.28,2.24-0.61,3.69-0.91c1.45-0.32,3.09-0.73,4.93-1.03c1.83-0.34,3.85-0.71,6.03-0.98c2.17-0.34,4.51-0.54,6.97-0.78
			c4.93-0.38,10.38-0.54,16.08-0.29c5.71,0.28,11.11,0.95,15.99,1.79c1.21,0.23,2.39,0.45,3.53,0.68
			c10.1-14.67,19.56-29.83,27.39-45.85c0.21-0.43,0.41-0.86,0.62-1.29C454.17,254.2,451.67,254.46,449.07,254.67z M432.72,204.41
			c-0.05,0.05-0.09,0.1-0.13,0.14c-0.19,0.04-0.39,0.07-0.57,0.11C432.25,204.58,432.48,204.5,432.72,204.41z M416.37,212.13
			c-0.24,0.22-0.46,0.44-0.68,0.65c-0.15,0.08-0.31,0.16-0.46,0.25C415.6,212.72,415.99,212.43,416.37,212.13z M170.16,497.68
			c1.53-1.3,3.36-2.19,5.42-2.01c0.45,0.79,1.34,1.36,2.02,1.92c0.03,0.02,0.06,0.05,0.08,0.07
			C175.26,496.89,172.56,496.88,170.16,497.68z M182.85,495.67c-0.08-0.18-0.16-0.36-0.24-0.54c-0.08-1.61-0.26-3.22-0.52-4.75
			c0.28,0.17,0.55,0.36,0.8,0.55c0.5,0.92,0.84,1.88,1.01,2.87c0.01,0.06,0.01,0.11,0.02,0.17
			C183.54,494.56,183.18,495.14,182.85,495.67z M185.32,491.52c-0.06-0.08-0.11-0.15-0.17-0.23c-0.01-0.33-0.02-0.66-0.04-1
			c0.14-0.1,0.29-0.21,0.45-0.33C185.48,490.48,185.39,491,185.32,491.52z M185.64,489.46c-0.2,0.2-0.38,0.39-0.54,0.55
			c-0.04-1.04-0.1-2.08-0.19-3.1c0.2,0.13,0.4,0.25,0.59,0.39c0.13,0.26,0.24,0.52,0.36,0.77
			C185.78,488.53,185.72,489,185.64,489.46z M190.09,499.13c6.04-0.68,12.05-1.62,18.01-2.81c2.03-0.04,4.06-0.02,6.08,0.02
			c-4.32,0.95-8.69,1.7-13.08,2.18C197.43,498.93,193.77,499.07,190.09,499.13z M216.86,497.44c-3.94,1.12-7.95,1.91-12.01,2.42
			c-0.9,0.11-1.8,0.2-2.7,0.26c6.08-0.77,12.09-2.08,17.81-3.75c0.05,0,0.1,0,0.15,0C219.04,496.76,217.96,497.13,216.86,497.44z
			 M221.35,494.57c-1.64,0.46-3.29,0.89-4.95,1.29c-1.91-0.03-3.81-0.07-5.73-0.08c8.24-1.75,16.39-3.98,24.38-6.67
			c1.4-0.43,2.8-0.87,4.19-1.34C233.48,490.53,227.49,492.83,221.35,494.57z M264.06,389.75c0.99-0.42,2.11-0.84,3.32-1.25
			c1.66-0.54,3.5-1.07,5.45-1.5c1.96-0.42,3.84-0.71,5.58-0.91c1.74-0.17,3.32-0.27,4.67-0.26c0.03,0,0.06,0,0.09,0
			c0.04,0.16,0.07,0.32,0.11,0.48C276.6,386.08,270.15,387.37,264.06,389.75z M326.73,375.89
			C326.73,375.9,326.73,375.9,326.73,375.89C326.73,375.9,326.73,375.9,326.73,375.89C326.73,375.9,326.73,375.9,326.73,375.89z"/>
		<path class="st2" d="M482.2,198.67c-0.65-0.45-1.48-0.98-2.48-1.54c0.16-0.09,0.31-0.22,0.39-0.38
			c18.93-35.63,25.87-77.36,19.97-117.28c-0.23-5.35-0.78-10.46-1.54-15.18c-0.64-3.36-1.2-6.56-2.02-9.49
			c-0.39-1.47-0.7-2.9-1.12-4.24c-0.43-1.34-0.84-2.63-1.23-3.86c-0.73-2.47-1.66-4.62-2.38-6.52c-0.38-0.95-0.71-1.84-1.05-2.64
			c-0.37-0.79-0.7-1.52-1.01-2.17c-1.22-2.6-1.89-4.03-1.89-4.03s0.54,1.49,1.53,4.18c0.25,0.67,0.52,1.42,0.83,2.23
			c0.28,0.82,0.54,1.73,0.85,2.7c0.58,1.95,1.35,4.12,1.93,6.62c0.32,1.23,0.65,2.53,0.99,3.88c0.34,1.35,0.58,2.78,0.89,4.24
			c0.03,0.12,0.05,0.24,0.07,0.36c-3.16-11.07-7.01-22.99-14.97-31.57c-7.44-8.01-18.27-11.88-28.76-7.99
			c-11.25,4.17-18.4,14.36-23.83,24.61c-3.72,7.03-7.18,14.21-10.52,21.45c2.21-6.16,4.49-11.97,6.94-17.21
			c3.16-6.76,6.55-12.58,9.94-17.09c3.37-4.52,6.55-7.84,8.93-9.92c0.57-0.55,1.11-1,1.59-1.38c0.47-0.39,0.87-0.71,1.2-0.97
			c0.65-0.53,0.99-0.81,0.99-0.81s-0.36,0.25-1.05,0.72c-0.34,0.24-0.77,0.53-1.27,0.88c-0.51,0.34-1.09,0.75-1.7,1.26
			c-2.55,1.91-5.99,5.03-9.66,9.44c-3.69,4.39-7.42,10.17-10.85,16.93c-3.43,6.77-6.5,14.54-9.32,22.78
			c-2.51,7.35-4.76,14.41-7.07,20.84c-3.23,7.36-6.44,14.73-9.64,22.1c-2.34,4.22-4.53,7.52-6.24,9.76
			c-0.91,1.3-1.75,2.21-2.25,2.88c-0.52,0.65-0.8,1-0.8,1s0.3-0.32,0.88-0.92c0.56-0.62,1.47-1.47,2.48-2.7
			c1.03-1.16,2.22-2.62,3.51-4.38c-7.37,17.08-14.67,34.2-21.95,51.32c-0.19,0.08-0.39,0.16-0.57,0.24
			c-2.43,1.11-4.34,2.63-5.69,4.09c-0.7,0.71-1.2,1.47-1.66,2.1c-0.41,0.67-0.73,1.26-0.99,1.75c-0.04,0.09-0.06,0.15-0.09,0.23
			c-0.88,0.53-1.73,1.08-2.5,1.67c-2.05,1.57-3.66,3.25-4.91,4.84c-0.17,0.22-0.36,0.45-0.52,0.66c-1.3,1.77-2.15,3.33-2.66,4.43
			c-0.51,1.1-0.74,1.73-0.74,1.73s0.37-0.56,1.07-1.53c0.7-0.97,1.79-2.31,3.27-3.81c0.83-0.85,1.83-1.74,2.94-2.61
			c2.81-2.21,6.45-4.36,10.73-5.66c0.14-0.04,0.29-0.07,0.43-0.11c-0.13,0.19-0.25,0.36-0.34,0.48c-0.15,0.22-0.24,0.34-0.24,0.34
			s0.11-0.09,0.32-0.27c0.2-0.16,0.47-0.43,0.85-0.71c1.01-0.27,2.01-0.49,3-0.65c-4.26,1.44-8.4,3.64-12.21,5.98
			c3.46-0.66,7.01-0.76,10.5-0.21c14.28,2.27,26.18,15.24,27.34,29.77c10.07-0.25,26-6.58,36.86-5.87c2.02-0.59,4.13-1.09,6.32-1.46
			c9.16-1.56,17.71-0.61,23.66,0.9c2.99,0.74,5.37,1.55,6.99,2.18c0.82,0.29,1.43,0.58,1.86,0.75c0.43,0.17,0.65,0.26,0.65,0.26
			s-0.21-0.12-0.6-0.36c-0.4-0.23-0.97-0.6-1.75-1.01c-1.53-0.85-3.83-1.97-6.8-3.03c-2.97-1.07-6.63-2.03-10.8-2.52
			c-4.16-0.49-8.83-0.46-13.64,0.33c-0.14,0.02-0.27,0.05-0.41,0.08c3.43-1.74,7.63-3.33,12.32-4.23c4.9-0.74,9.86-0.89,14.77-0.37
			c2.99,0.4,5.7,1.04,7.93,1.77c2.49,0.8,4.47,1.63,5.8,2.27c0.68,0.3,1.18,0.59,1.53,0.75c0.35,0.18,0.54,0.27,0.54,0.27
			s-0.16-0.12-0.48-0.36C483.27,199.45,482.82,199.08,482.2,198.67z M372.97,171.36c-1.48,0.18-3,0.47-4.52,0.93
			c-1.86,0.57-3.58,1.34-5.16,2.22c0.27-0.31,0.55-0.64,0.89-1.01c0.55-0.51,1.13-1.12,1.89-1.67c2.88-2.28,7.75-4.45,13.21-4.15
			c1.37,0.08,2.67,0.31,3.9,0.66c-1.31-0.05-2.58,0.04-3.75,0.27c-2.51,0.48-4.61,1.46-6.17,2.53
			C373.15,171.22,373.07,171.29,372.97,171.36z M383.37,172.15c-1.63-0.45-3.46-0.79-5.48-0.93c-0.3-0.02-0.6-0.03-0.9-0.04
			c2.89-0.7,6.42-0.82,9.89,0.39c1.75,0.62,3.29,1.53,4.64,2.58c0.68,0.83,1.31,1.69,1.85,2.61
			C390.68,174.15,387.33,172.4,383.37,172.15z M436.82,200.59c-1.73,0.48-3.39,1.05-4.97,1.67c2.11-1.05,4.28-2,6.5-2.86
			C437.81,199.81,437.3,200.2,436.82,200.59z"/>
		<g class="st0">
			<path class="st3" d="M178.01,510.28c-0.46-2.7-0.93-5.39-1.39-8.09c-1.95,0.84-3.91,1.68-5.86,2.52L178.01,510.28z"/>
			<path class="st3" d="M487.4,48.98c-2.61-8.01-7.25-15.97-15.17-19.66c-8.18-3.82-17.5-1.84-24.84,2.91
				C428.54,44.42,426.85,69.6,421,89.21c-3.79,12.71-8.6,25.12-14.4,37.04c-5.85,12.03-12.83,23.28-20.18,34.43
				c-0.29,0.44,0.14,0.95,0.59,0.96c9,0.19,16.71,6.57,19.87,14.71c-3.86,5.89-9.4,10.82-14.65,15.66
				c-46.11,42.55-81.05,97.09-100.43,156.76c-2.08,8.47-4.15,16.95-6.23,25.42c-3.26,2.63-6.52,5.25-9.78,7.88
				c4.28,0.33,8.55,0.67,12.83,1c-15.29,9.21-30.57,18.42-45.86,27.63c0.6-1.42,1.19-2.84,1.79-4.27
				c-12.16,19.34-24.33,38.68-36.49,58.02c1.13-3.78,2.26-7.56,3.39-11.33c-5.7,17.93-18.33,33.56-34.65,42.91
				c1.82-0.27-0.15,3.43-0.94,1.77c0.25,1.47,0.51,2.94,0.76,4.41c28.01-12.04,56.01-24.09,84.02-36.13
				c9.08-3.91,18.3-7.89,25.93-14.17c7.64-6.28,13.62-15.26,14-25.14c0.37-9.88-6.1-20.26-15.79-22.22
				c6.53-6.38,16.52-8.98,25.33-6.6c-7.28-3-14.56-6-21.85-9.01c11.61-7.52,23.21-15.05,34.82-22.57
				c45.49-17.63,83.86-53.1,104.76-97.21c3.81-8.03,7.12-16.7,6.41-25.56c-0.71-8.86-6.49-17.87-15.2-19.65
				c4.43,0.04,8.85,0.08,13.28,0.11c-7.89-0.6-15.78-1.21-23.67-1.81c4.37-10.79,8.74-21.59,13.11-32.39
				c12.6-9.02,28.19-13.86,43.84-12.75c0.26,0.02,0.51-0.18,0.63-0.39c11.8-19.66,19.74-41.57,23.32-64.21
				c1.73-10.91,2.44-21.98,2.11-33.02C491.36,69.3,490.57,58.72,487.4,48.98z"/>
		</g>
		<g>
			<g class="st0">
				<path class="st3" d="M450.3,172.14c-2.2,0.27-4.38,0.67-6.52,1.19c-2.48,2.22-5.06,4.34-7.76,6.31
					C440.77,177.14,445.54,174.64,450.3,172.14z"/>
			</g>
			<g class="st0">
				<g>
					<path class="st3" d="M477.54,63.23c-2.12-8.17-7.82-17.74-16.14-16.33c-5.36,0.91-8.73,6.12-11.43,10.84
						c-18.4,32.14-37.29,66.02-38.71,102.92c-0.89-4.45-7.71-7.49-11.08-3.88c9.4,1.79,13.87,13.63,11.43,22.88
						c-2.44,9.26-9.54,16.42-16.16,23.34c-15.3,15.99-29.46,33.08-42.23,51.15c-27,38.19-47.74,80.8-61.17,125.6
						c-15.6,16.79-33.42,31.51-52.86,43.65c1.03-1.81,2.05-3.62,3.08-5.44c-11.98,21.32-27.51,40.61-45.66,57.02
						c-2.15,3.19-4.61,6.88-6.96,10.43c-0.59,0.66-1.16,1.25-1.67,1.81c-0.08,0.09-0.16,0.17-0.24,0.26
						c-0.02-0.79-0.07-1.58-0.17-2.36c0.09-0.74,0.19-1.48,0.26-2.21c0.01-0.13-0.05-0.21-0.14-0.27c-0.61,0.5-1.22,0.99-1.83,1.49
						c0.1,0.61,0.18,1.22,0.24,1.82c-0.19-0.22-0.39-0.43-0.6-0.62c-0.19-0.18-0.45-0.12-0.6,0.04c-0.02-0.15-0.04-0.3-0.05-0.45
						c-0.46,0.36-0.92,0.73-1.39,1.09c0.01,0.01,0.01,0.02,0.02,0.02c0.12,0.05,0.23,0.12,0.34,0.18c-0.04,1.23-0.04,2.46,0,3.72
						c-0.08-0.05-0.16-0.11-0.25-0.17c-0.34-0.42-0.71-0.82-1.15-1.16c-0.25-0.19-0.65-0.01-0.68,0.25
						c-0.21-0.1-0.48-0.05-0.67,0.12c-0.16-0.01-0.32-0.04-0.49-0.04c-0.39,0-0.39,0.52-0.07,0.64c0.1,0.04,0.2,0.08,0.3,0.12
						c-0.07,0.81-0.13,1.64-0.15,2.49c-0.82-0.82-1.77-1.5-2.8-1.98c-0.4,0.29-0.8,0.58-1.2,0.87c1.1,0.56,2.07,1.26,2.86,2.1
						c-0.44-0.16-0.9-0.28-1.37-0.35c-0.44-0.31-0.92-0.56-1.44-0.7c-0.38-0.11-0.76,0.29-0.69,0.65c-1.17,0.13-2.29,0.53-3.17,1.19
						c-0.27,0.21-0.28,0.74,0.13,0.8c0.18,0.03,0.37,0.04,0.55,0.05c-1.86,0.49-3.53,1.59-4.34,3.25c-1.53,0.67-2.89,1.68-3.91,3.07
						c-0.2,0.28,0.09,0.78,0.43,0.52c2.7-2.09,5.72-3.25,8.77-3.26c-1.97,0.33-3.82,1.44-4.59,3.14c-0.16,0.36,0.27,0.7,0.57,0.41
						c2.87-2.83,6.11-2.85,9.49-0.97c0.24,0.13,0.48-0.12,0.4-0.35c0.14,0.07,0.28,0.1,0.41,0.11c7.22-6.95,14-14.42,22.3-19.99
						c15.69-10.54,35.23-13.3,52.55-20.88c17.32-7.58,33.94-23.76,31.2-42.47c-4.81-0.32-9.63-0.64-14.44-0.97
						c6.08-7.31,12.17-14.63,18.25-21.94c-2.16,0.18-4.33,0.37-6.49,0.55c6.89-17.74,22.73-30.42,39.13-40.06
						c16.41-9.64,34.17-17.22,48.97-29.19c14.8-11.96,26.62-29.76,25.2-48.74c-0.6-7.94-3.47-15.91-1.79-23.7
						c1.28-5.97,7.17-11.34,12.69-11.35c-4.78-2.57-8.29-7.62-9.5-13.01c-1.58-7.08,0.18-14.53,3.13-21.16
						c7.63-17.1,23.64-30.14,41.81-34.51C473.79,146.47,487.72,102.34,477.54,63.23z M170.2,497.67c1.54-1.31,3.39-2.19,5.47-2.01
						c0.45,0.79,1.35,1.36,2.03,1.92c0.03,0.02,0.06,0.05,0.08,0.07C175.35,496.89,172.62,496.88,170.2,497.67z M183,495.66
						c-0.08-0.18-0.16-0.36-0.25-0.54c-0.08-1.61-0.26-3.22-0.52-4.75c0.29,0.17,0.55,0.36,0.81,0.55c0.51,0.92,0.85,1.88,1.02,2.87
						c0.01,0.06,0.01,0.11,0.02,0.17C183.7,494.55,183.34,495.13,183,495.66z M185.49,491.51c-0.06-0.08-0.11-0.15-0.17-0.23
						c-0.01-0.33-0.02-0.66-0.04-1c0.14-0.1,0.29-0.21,0.45-0.33C185.66,490.47,185.57,490.99,185.49,491.51z M185.82,489.46
						c-0.2,0.2-0.38,0.39-0.54,0.55c-0.04-1.04-0.1-2.08-0.19-3.1c0.2,0.13,0.41,0.25,0.6,0.39c0.13,0.26,0.24,0.52,0.36,0.77
						C185.96,488.53,185.9,488.99,185.82,489.46z"/>
				</g>
			</g>
			<g class="st0">
				<path class="st3" d="M408.33,242c1.49,0.8,3.1,1.37,4.81,1.62C411.67,242.49,410.02,242,408.33,242z"/>
			</g>
		</g>
		<g>
			<path class="st3" d="M389.47,161.43c3.44,0.75,8.09,2.72,11.92,6.5c3.82,3.79,5.83,8.43,6.62,11.85
				c0.41,1.72,0.58,3.16,0.63,4.15c0.06,0.99,0.06,1.55,0.06,1.55s0.05-0.55,0.07-1.55c0.02-1-0.04-2.46-0.35-4.23
				c-0.59-3.52-2.46-8.42-6.43-12.37c-3.98-3.94-8.9-5.76-12.43-6.32c-1.78-0.29-3.24-0.34-4.24-0.31c-1,0.03-1.55,0.09-1.55,0.09
				s0.55,0,1.55,0.05C386.3,160.88,387.74,161.04,389.47,161.43z"/>
			<path class="st3" d="M460.57,184.31c-1.02-0.02-2.18-0.07-3.47-0.03c-2.57,0.01-5.63,0.19-9.01,0.55c-3.38,0.4-7.08,1-10.9,1.91
				c-1.68,0.41-3.3,0.86-4.88,1.34c4.3-1.89,7.32-3.42,7.32-3.42s-5.1,1.65-11.19,4.16c-6.09,2.51-10.87,4.94-10.87,4.94
				s0.51-0.16,1.39-0.46c-0.2,0.1-0.42,0.2-0.62,0.3c-1.16,0.55-2.17,1.12-3.07,1.6c-0.9,0.47-1.66,0.92-2.28,1.29
				c-1.23,0.73-1.91,1.14-1.91,1.14s0.7-0.36,1.98-1.02c0.63-0.34,1.41-0.74,2.33-1.17c0.92-0.43,1.95-0.96,3.13-1.46
				c2.33-1.06,5.16-2.18,8.34-3.31c3.19-1.1,6.75-2.17,10.53-3.1c3.79-0.9,7.45-1.55,10.79-2.02c3.35-0.44,6.38-0.72,8.94-0.83
				c1.28-0.09,2.43-0.09,3.45-0.12c1.02-0.04,1.89-0.03,2.61-0.02c1.43,0.01,2.23,0.01,2.23,0.01s-0.79-0.05-2.22-0.15
				C462.47,184.37,461.59,184.32,460.57,184.31z"/>
			<path class="st3" d="M400.52,158.84c0.34,0.03,0.72,0.02,1.13,0.11c0.83,0.11,1.79,0.39,2.8,0.81c1,0.46,2.03,1.07,3.01,1.86
				c0.96,0.81,1.76,1.71,2.4,2.61c0.6,0.91,1.07,1.8,1.33,2.59c0.17,0.39,0.23,0.76,0.32,1.09c0.1,0.32,0.14,0.61,0.16,0.85
				c0.07,0.47,0.1,0.74,0.1,0.74s0.01-0.27,0.03-0.75c0.01-0.24,0.02-0.54-0.03-0.88c-0.04-0.34-0.06-0.74-0.18-1.16
				c-0.17-0.86-0.56-1.84-1.14-2.86c-0.61-0.99-1.43-2-2.46-2.87c-1.05-0.85-2.2-1.46-3.29-1.87c-1.11-0.37-2.14-0.57-3.02-0.57
				c-0.44-0.04-0.83,0.02-1.17,0.04c-0.34,0.01-0.63,0.08-0.87,0.14c-0.47,0.11-0.73,0.17-0.73,0.17s0.26-0.01,0.74-0.04
				C399.9,158.82,400.19,158.8,400.52,158.84z"/>
			<path class="st3" d="M462.1,170.37c-0.9,0-1.92-0.04-3.05,0.03c-1.13,0.04-2.37,0.1-3.7,0.24c-1.33,0.1-2.74,0.33-4.22,0.55
				c-2.95,0.51-6.17,1.27-9.46,2.36c-3.28,1.12-6.3,2.47-8.96,3.84c-1.31,0.72-2.57,1.39-3.69,2.12c-1.14,0.68-2.17,1.39-3.09,2.04
				c-0.94,0.63-1.73,1.28-2.45,1.83c-0.72,0.54-1.31,1.04-1.78,1.46c-0.95,0.83-1.48,1.29-1.48,1.29s0.56-0.42,1.56-1.18
				c0.5-0.39,1.11-0.85,1.86-1.35c0.74-0.5,1.56-1.11,2.52-1.69c0.95-0.6,1.99-1.26,3.15-1.89c1.13-0.68,2.4-1.3,3.72-1.98
				c2.67-1.29,5.67-2.57,8.91-3.68c3.25-1.08,6.41-1.88,9.32-2.46c1.46-0.26,2.85-0.53,4.16-0.67c1.31-0.2,2.53-0.3,3.65-0.4
				c1.12-0.12,2.14-0.13,3.03-0.18c0.89-0.05,1.66-0.06,2.29-0.05c1.26,0,1.96,0,1.96,0s-0.7-0.05-1.96-0.13
				C463.77,170.41,463,170.36,462.1,170.37z"/>
			<path class="st3" d="M440.06,171.9c0,0-2.34,0.76-4.97,2.17c-2.64,1.4-4.58,2.91-4.58,2.91s2.34-0.76,4.97-2.17
				C438.12,173.41,440.06,171.9,440.06,171.9z"/>
			<path class="st3" d="M462.35,136.67c-0.9,0.09-1.94,0.16-3.07,0.35c-1.13,0.16-2.38,0.35-3.69,0.64
				c-1.33,0.24-2.72,0.62-4.19,0.99c-2.92,0.83-6.08,1.92-9.28,3.35c-3.19,1.46-6.1,3.12-8.64,4.77c-1.25,0.86-2.45,1.66-3.51,2.5
				c-1.09,0.8-2.05,1.61-2.91,2.36c-0.89,0.72-1.62,1.46-2.29,2.08c-0.67,0.61-1.22,1.17-1.65,1.64c-0.88,0.93-1.37,1.44-1.37,1.44
				s0.52-0.48,1.46-1.34c0.46-0.44,1.04-0.96,1.74-1.54c0.7-0.58,1.46-1.27,2.38-1.95c0.9-0.7,1.88-1.46,2.99-2.22
				c1.08-0.79,2.29-1.55,3.55-2.36c2.56-1.57,5.46-3.16,8.61-4.6c3.16-1.42,6.27-2.54,9.13-3.44c1.44-0.41,2.81-0.83,4.12-1.11
				c1.3-0.34,2.52-0.57,3.64-0.78c1.11-0.24,2.14-0.36,3.03-0.5c0.89-0.15,1.67-0.24,2.3-0.3c1.27-0.14,1.97-0.21,1.97-0.21
				s-0.71,0.03-1.98,0.08C464.04,136.52,463.26,136.56,462.35,136.67z"/>
			<path class="st3" d="M412.47,122.34c0.47,0.28,1.02,0.57,1.58,0.97c1.15,0.74,2.43,1.76,3.75,2.99c1.29,1.26,2.62,2.74,3.82,4.44
				c1.18,1.71,2.12,3.46,2.86,5.11c0.7,1.66,1.22,3.21,1.53,4.55c0.19,0.66,0.27,1.28,0.37,1.82c0.11,0.54,0.17,1.01,0.2,1.39
				c0.08,0.77,0.13,1.2,0.13,1.2s0-0.43,0-1.2c0.01-0.39,0-0.87-0.07-1.41c-0.06-0.55-0.08-1.18-0.23-1.87
				c-0.21-1.38-0.64-3-1.28-4.74c-0.68-1.72-1.61-3.55-2.83-5.32c-1.24-1.75-2.65-3.25-4.03-4.48c-1.41-1.2-2.78-2.16-4.01-2.83
				c-0.59-0.37-1.18-0.61-1.68-0.85c-0.49-0.25-0.94-0.42-1.31-0.55c-0.73-0.26-1.13-0.41-1.13-0.41s0.38,0.19,1.08,0.53
				C411.58,121.84,412,122.05,412.47,122.34z"/>
			<path class="st3" d="M423.99,91.25c0.51,0.29,1.11,0.58,1.71,1.01c0.62,0.4,1.29,0.84,1.96,1.39c0.7,0.5,1.37,1.14,2.09,1.78
				c1.39,1.35,2.8,2.94,4.07,4.77c1.25,1.85,2.22,3.74,2.97,5.53c0.33,0.91,0.68,1.76,0.9,2.6c0.27,0.82,0.44,1.61,0.58,2.33
				c0.18,0.72,0.23,1.38,0.32,1.96c0.1,0.58,0.13,1.08,0.14,1.5c0.05,0.83,0.08,1.29,0.08,1.29s0.02-0.46,0.06-1.29
				c0.02-0.42,0.04-0.93-0.01-1.52c-0.04-0.59-0.04-1.27-0.17-2.01c-0.1-0.74-0.22-1.56-0.44-2.41c-0.17-0.87-0.48-1.76-0.79-2.7
				c-0.69-1.86-1.65-3.84-2.94-5.75c-1.31-1.89-2.81-3.5-4.29-4.82c-0.77-0.63-1.49-1.24-2.23-1.72c-0.71-0.52-1.43-0.93-2.08-1.29
				c-0.64-0.39-1.27-0.64-1.81-0.89c-0.53-0.26-1.01-0.43-1.41-0.56c-0.79-0.27-1.22-0.42-1.22-0.42s0.42,0.19,1.17,0.54
				C423.02,90.74,423.48,90.95,423.99,91.25z"/>
			<path class="st3" d="M482.42,108.7c-0.66-0.13-1.47-0.26-2.42-0.33c-0.95-0.09-2.03-0.24-3.23-0.24
				c-0.38-0.01-0.79-0.02-1.2-0.03c-0.09-0.01-0.17-0.03-0.27-0.04c-1.37-0.21-3.03-0.33-4.88-0.33c-1.84,0.04-3.87,0.22-5.96,0.64
				c-2.09,0.44-4.02,1.07-5.73,1.76c-1.7,0.72-3.18,1.48-4.35,2.22c-0.34,0.21-0.66,0.41-0.95,0.61c-1.6,0.77-3.11,1.58-4.51,2.41
				c-1.34,0.86-2.63,1.66-3.74,2.53c-0.56,0.43-1.13,0.82-1.63,1.24c-0.5,0.43-0.98,0.84-1.43,1.23c-0.93,0.76-1.68,1.56-2.36,2.22
				c-0.69,0.66-1.24,1.27-1.67,1.78c-0.88,1.01-1.37,1.57-1.37,1.57s0.52-0.53,1.46-1.48c0.46-0.48,1.04-1.06,1.76-1.68
				c0.71-0.62,1.49-1.38,2.45-2.09c0.47-0.37,0.96-0.75,1.47-1.16c0.51-0.4,1.09-0.76,1.66-1.16c1.13-0.83,2.43-1.57,3.77-2.39
				c2.74-1.54,5.86-3.03,9.27-4.26c3.42-1.19,6.79-1.99,9.89-2.51c1.56-0.21,3.03-0.44,4.43-0.51c0.7-0.04,1.37-0.12,2.02-0.13
				c0.49-0.01,0.96-0.01,1.42-0.02c0.89,0.08,1.63,0.18,2.19,0.27c0.76,0.12,1.19,0.19,1.19,0.19s-0.41-0.11-1.16-0.32
				c-0.16-0.05-0.35-0.09-0.55-0.14c0.71,0.02,1.39,0.06,2,0.08c0.95,0.03,1.76,0.11,2.42,0.2c1.33,0.15,2.07,0.23,2.07,0.23
				S483.74,108.94,482.42,108.7z"/>
			<path class="st3" d="M470.3,98.47c0,0-2.25,0.12-4.9,0.78c-2.65,0.66-4.7,1.6-4.7,1.6s2.25-0.12,4.9-0.78
				C468.25,99.41,470.3,98.47,470.3,98.47z"/>
			<path class="st3" d="M437.05,50.72c3.24,1.64,7.37,4.84,10.11,9.67c2.73,4.83,3.35,10.03,3.08,13.64
				c-0.12,1.82-0.39,3.29-0.65,4.28c-0.25,1-0.42,1.54-0.42,1.54s0.22-0.53,0.55-1.51c0.33-0.98,0.71-2.44,0.94-4.28
				c0.48-3.65,0.07-9.06-2.77-14.1c-2.85-5.03-7.28-8.17-10.66-9.63c-1.7-0.75-3.14-1.18-4.15-1.4c-1.01-0.22-1.57-0.31-1.57-0.31
				s0.56,0.13,1.54,0.43C434.03,49.37,435.43,49.89,437.05,50.72z"/>
			<path class="st3" d="M293.19,369.55c0,0,0.25-0.63,0.71-1.77c0.46-1.14,1.07-2.81,1.75-4.91c0.69-2.09,1.39-4.62,2.04-7.46
				c0.63-2.84,1.19-6,1.57-9.34c0.36-3.34,0.51-6.54,0.53-9.45c-0.01-2.91-0.13-5.53-0.34-7.72c-0.2-2.19-0.42-3.96-0.62-5.17
				c-0.19-1.21-0.3-1.89-0.3-1.89s0.08,0.67,0.23,1.89c0.16,1.22,0.33,2.99,0.47,5.18c0.15,2.19,0.22,4.8,0.19,7.7
				c-0.06,2.9-0.23,6.08-0.6,9.41c-0.38,3.32-0.92,6.47-1.5,9.31c-0.61,2.83-1.26,5.37-1.89,7.47c-0.63,2.1-1.18,3.79-1.61,4.95
				C293.42,368.91,293.19,369.55,293.19,369.55z"/>
			<path class="st3" d="M287.7,377.27c0.38-0.92,0.84-1.95,1.26-3.13c0.9-2.33,1.83-5.17,2.7-8.36c0.84-3.2,1.61-6.76,2.17-10.54
				c0.53-3.79,0.78-7.42,0.87-10.73c0.05-3.31-0.05-6.29-0.26-8.78c-0.07-1.25-0.22-2.37-0.33-3.36c-0.1-0.99-0.22-1.83-0.34-2.52
				c-0.21-1.38-0.33-2.15-0.33-2.15s0.09,0.77,0.26,2.15c0.09,0.69,0.19,1.54,0.27,2.53c0.08,0.99,0.21,2.11,0.25,3.36
				c0.16,2.49,0.2,5.46,0.11,8.76c-0.13,3.29-0.41,6.91-0.93,10.68c-0.55,3.77-1.29,7.32-2.09,10.51c-0.83,3.19-1.71,6.03-2.56,8.38
				c-0.39,1.19-0.83,2.23-1.18,3.15c-0.35,0.93-0.68,1.72-0.96,2.35c-0.55,1.28-0.86,1.99-0.86,1.99s0.33-0.7,0.92-1.97
				C286.98,378.97,287.33,378.19,287.7,377.27z"/>
			<path class="st3" d="M297.61,359c0,0,1.35-4.13,2.76-9.29c1.41-5.16,2.35-9.4,2.35-9.4s-1.35,4.13-2.76,9.29
				C298.55,354.76,297.61,359,297.61,359z"/>
			<path class="st3" d="M328.34,366.29c0.4-0.25,0.83-0.52,1.31-0.81c2.47-1.51,6.03-3.38,10.15-4.95
				c4.13-1.56,8.03-2.52,10.88-3.04c1.43-0.26,2.59-0.44,3.39-0.53c0.81-0.1,1.25-0.16,1.25-0.16s-0.45,0.03-1.26,0.09
				c-0.81,0.05-1.98,0.18-3.42,0.38c-2.88,0.41-6.83,1.28-11,2.85c-4.16,1.59-7.69,3.56-10.12,5.17c-0.64,0.42-1.21,0.81-1.7,1.16
				c-10.39,3.46-17.6,5.94-17.6,5.94s6.82-2.12,16.71-5.29c-0.08,0.06-0.16,0.12-0.23,0.17c-0.64,0.49-1,0.77-1,0.77
				s0.37-0.25,1.04-0.71c0.14-0.1,0.29-0.2,0.45-0.31c3.97-1.27,8.42-2.71,13.13-4.25c16.59-5.43,29.97-10.03,29.97-10.03
				s-13.51,4.2-30.1,9.63C335.99,363.75,331.98,365.08,328.34,366.29z"/>
			<path class="st3" d="M367.01,337.72c-0.92-0.02-1.98-0.08-3.14-0.03c-1.17,0.02-2.44,0.05-3.81,0.17
				c-1.37,0.07-2.82,0.27-4.35,0.45c-3.05,0.45-6.38,1.12-9.8,2.12c-3.41,1.03-6.57,2.28-9.37,3.57c-1.38,0.68-2.71,1.3-3.9,1.99
				c-1.21,0.64-2.3,1.31-3.29,1.93c-1,0.59-1.85,1.22-2.62,1.74c-0.77,0.51-1.41,0.99-1.92,1.39c-1.03,0.79-1.6,1.23-1.6,1.23
				s0.58-0.42,1.64-1.18c0.52-0.39,1.17-0.85,1.96-1.34c0.78-0.5,1.64-1.1,2.66-1.67c1-0.59,2.09-1.24,3.31-1.86
				c1.19-0.66,2.52-1.26,3.91-1.92c2.8-1.25,5.95-2.46,9.34-3.48c3.4-0.99,6.7-1.69,9.73-2.17c1.52-0.2,2.96-0.42,4.33-0.52
				c1.36-0.15,2.63-0.2,3.79-0.25c1.16-0.08,2.21-0.04,3.13-0.05c0.92-0.01,1.72,0.02,2.37,0.05c1.3,0.06,2.02,0.09,2.02,0.09
				s-0.72-0.06-2.02-0.16C368.73,337.79,367.94,337.73,367.01,337.72z"/>
			<path class="st3" d="M349.49,335.85c4.23-0.72,7.62-1.51,7.62-1.51s-3.46,0.37-7.69,1.09c-4.23,0.72-7.62,1.51-7.62,1.51
				S345.27,336.56,349.49,335.85z"/>
			<path class="st3" d="M312.51,304.25c0.32,0.45,0.72,0.93,1.07,1.53c0.77,1.15,1.55,2.61,2.28,4.28c0.7,1.69,1.33,3.59,1.77,5.66
				c0.41,2.07,0.58,4.07,0.6,5.89c-0.02,1.82-0.16,3.47-0.42,4.83c-0.09,0.69-0.26,1.29-0.38,1.83c-0.11,0.54-0.25,0.99-0.37,1.36
				c-0.23,0.74-0.36,1.15-0.36,1.15s0.15-0.4,0.42-1.13c0.14-0.36,0.3-0.81,0.44-1.35c0.14-0.53,0.34-1.13,0.46-1.82
				c0.31-1.36,0.51-3.02,0.57-4.87c0.02-1.85-0.12-3.89-0.54-5.98c-0.44-2.09-1.11-4.02-1.85-5.71c-0.78-1.68-1.61-3.12-2.43-4.25
				c-0.38-0.59-0.8-1.06-1.14-1.5c-0.34-0.44-0.66-0.79-0.93-1.07c-0.54-0.56-0.83-0.88-0.83-0.88s0.28,0.33,0.78,0.92
				C311.89,303.44,312.2,303.8,312.51,304.25z"/>
			<path class="st3" d="M325.87,307.92c0.15-2.64,0.06-4.8,0.06-4.8s-0.33,2.13-0.48,4.78c-0.15,2.64-0.06,4.8-0.06,4.8
				S325.73,310.56,325.87,307.92z"/>
			<path class="st3" d="M290.68,434.92c-1.07-0.01-2.3-0.05-3.65,0.01c-2.7,0.04-5.92,0.26-9.48,0.67
				c-3.55,0.45-7.43,1.12-11.45,2.09c-4.01,1-7.76,2.22-11.11,3.47c-3.34,1.29-6.29,2.59-8.7,3.81c-1.22,0.58-2.29,1.18-3.23,1.69
				c-0.95,0.5-1.75,0.97-2.4,1.36c-1.3,0.77-2.02,1.2-2.02,1.2s0.73-0.41,2.05-1.14c0.66-0.37,1.46-0.82,2.43-1.3
				c0.96-0.48,2.03-1.07,3.26-1.62c2.43-1.17,5.39-2.42,8.73-3.67c3.35-1.21,7.09-2.4,11.08-3.39c4-0.97,7.86-1.66,11.39-2.15
				c3.54-0.45,6.74-0.72,9.44-0.81c1.35-0.08,2.57-0.07,3.64-0.09c1.07-0.03,2-0.01,2.75,0.02c1.51,0.04,2.35,0.06,2.35,0.06
				s-0.83-0.04-2.34-0.12C292.68,434.96,291.76,434.92,290.68,434.92z"/>
			<path class="st3" d="M273.69,427.89c0,0-3.45,0.93-7.63,2.33c-4.18,1.4-7.5,2.73-7.5,2.73s3.45-0.93,7.63-2.33
				C270.37,429.22,273.69,427.89,273.69,427.89z"/>
			<path class="st3" d="M302.12,420.06c-1.72-0.67-3.81-1.34-6.17-1.96c-2.36-0.59-5-1.12-7.79-1.46c-2.8-0.32-5.48-0.42-7.92-0.39
				c-2.44,0.06-4.63,0.23-6.45,0.48c-1.83,0.24-3.29,0.5-4.3,0.72c-1.01,0.22-1.56,0.34-1.56,0.34s0.56-0.1,1.57-0.27
				c1.01-0.19,2.48-0.39,4.31-0.58c1.82-0.2,4.01-0.31,6.43-0.33c2.42,0.01,5.09,0.14,7.87,0.45c2.78,0.34,5.4,0.84,7.76,1.39
				c2.35,0.58,4.45,1.2,6.18,1.82c1.73,0.61,3.12,1.15,4.06,1.57c0.94,0.41,1.47,0.63,1.47,0.63s-0.51-0.25-1.44-0.69
				C305.21,421.31,303.84,420.72,302.12,420.06z"/>
			<path class="st3" d="M286.82,411.14c0,0-1.75,0.14-3.85,0.56c-2.1,0.43-3.76,0.98-3.76,0.98s1.75-0.14,3.85-0.56
				C285.16,411.69,286.82,411.14,286.82,411.14z"/>
			<path class="st3" d="M233.14,439.99c1.05-1.07,2.22-2.42,3.44-3.99c1.19-1.59,2.41-3.41,3.52-5.41c1.1-2.01,1.98-4.02,2.68-5.87
				c0.68-1.87,1.19-3.58,1.53-5.04c0.34-1.46,0.57-2.65,0.68-3.48c0.12-0.83,0.18-1.29,0.18-1.29s-0.09,0.45-0.25,1.27
				c-0.15,0.82-0.42,2-0.82,3.44c-0.78,2.88-2.19,6.77-4.38,10.76c-2.2,3.98-4.73,7.26-6.74,9.46c-1,1.1-1.85,1.97-2.46,2.54
				c-0.61,0.58-0.94,0.89-0.94,0.89s0.35-0.3,0.99-0.85C231.21,441.89,232.09,441.06,233.14,439.99z"/>
			<path class="st3" d="M249.29,416.62c0,0-0.73,1.22-1.38,2.83c-0.65,1.61-0.99,2.99-0.99,2.99s0.73-1.22,1.38-2.83
				C248.96,418,249.29,416.62,249.29,416.62z"/>
			<path class="st3" d="M247.17,471c-1.6-0.3-3.53-0.54-5.67-0.7c-2.15-0.13-4.52-0.15-7.01,0.02c-2.48,0.19-4.83,0.55-6.94,0.98
				c-2.11,0.46-3.98,0.97-5.52,1.5c-1.54,0.52-2.77,0.99-3.6,1.36c-0.83,0.36-1.3,0.56-1.3,0.56s0.47-0.18,1.32-0.5
				c0.85-0.33,2.09-0.75,3.64-1.22c1.55-0.47,3.43-0.93,5.52-1.35c2.1-0.39,4.43-0.72,6.9-0.91c2.46-0.17,4.82-0.17,6.96-0.08
				c2.14,0.11,4.06,0.3,5.66,0.55c1.6,0.24,2.9,0.48,3.78,0.68c0.89,0.19,1.38,0.3,1.38,0.3s-0.49-0.13-1.36-0.37
				C250.06,471.59,248.77,471.29,247.17,471z"/>
			<path class="st3" d="M235.44,463.63c0,0-2.19,0.58-4.81,1.54c-2.62,0.96-4.67,1.93-4.67,1.93s2.19-0.58,4.81-1.54
				C233.39,464.6,235.44,463.63,235.44,463.63z"/>
			<path class="st3" d="M327.11,387.55c-0.77-0.07-1.63-0.19-2.6-0.22c-1.93-0.13-4.24-0.13-6.8,0.02
				c-2.56,0.19-5.36,0.55-8.25,1.19c-2.89,0.66-5.58,1.52-7.97,2.44c-2.38,0.95-4.47,1.93-6.17,2.87c-0.86,0.44-1.6,0.91-2.26,1.31
				c-0.67,0.39-1.22,0.75-1.66,1.06c-0.9,0.61-1.39,0.94-1.39,0.94s0.51-0.32,1.43-0.88c0.46-0.29,1.02-0.64,1.69-1
				c0.67-0.37,1.42-0.82,2.29-1.23c1.71-0.89,3.81-1.82,6.19-2.73c2.39-0.87,5.07-1.7,7.94-2.36c2.87-0.63,5.65-1.02,8.19-1.24
				c2.54-0.19,4.84-0.24,6.77-0.16c0.97,0,1.83,0.09,2.6,0.14c0.77,0.04,1.42,0.12,1.96,0.18c1.07,0.12,1.67,0.19,1.67,0.19
				s-0.59-0.09-1.66-0.26C328.53,387.71,327.87,387.62,327.11,387.55z"/>
			<path class="st3" d="M339.16,375.61c-2.91-0.37-6.98-0.61-11.46-0.3c-4.48,0.32-8.47,1.14-11.3,1.92
				c-1.42,0.39-2.55,0.74-3.32,1.01c-0.78,0.27-1.2,0.41-1.2,0.41s0.44-0.12,1.22-0.35c0.78-0.23,1.93-0.53,3.36-0.87
				c2.85-0.67,6.83-1.38,11.28-1.7c4.45-0.31,8.49-0.17,11.41,0.09c1.46,0.13,2.63,0.26,3.44,0.38c0.81,0.11,1.26,0.17,1.26,0.17
				s-0.45-0.08-1.25-0.24C341.79,375.98,340.62,375.79,339.16,375.61z"/>
			<path class="st3" d="M336.53,242.87c0.47,0.89,1.07,1.87,1.57,3.03c0.27,0.57,0.55,1.17,0.84,1.8c0.29,0.63,0.53,1.31,0.81,2
				c0.58,1.37,1.04,2.89,1.56,4.48c0.93,3.21,1.72,6.81,2.15,10.65c0.39,3.84,0.39,7.53,0.16,10.86c-0.17,1.66-0.29,3.25-0.57,4.71
				c-0.13,0.73-0.21,1.45-0.36,2.12c-0.15,0.67-0.3,1.32-0.44,1.94c-0.25,1.24-0.62,2.33-0.89,3.3c-0.26,0.97-0.55,1.79-0.81,2.45
				c-0.49,1.33-0.75,2.07-0.75,2.07s0.29-0.73,0.82-2.05c0.27-0.66,0.59-1.47,0.87-2.43c0.3-0.96,0.69-2.05,0.97-3.29
				c0.15-0.62,0.31-1.26,0.48-1.94c0.16-0.68,0.26-1.39,0.4-2.13c0.31-1.47,0.45-3.06,0.64-4.73c0.27-3.35,0.3-7.07-0.09-10.94
				c-0.44-3.86-1.26-7.49-2.23-10.71c-0.54-1.59-1.02-3.12-1.64-4.49c-0.29-0.69-0.54-1.37-0.84-1.99c-0.31-0.62-0.6-1.22-0.88-1.79
				c-0.53-1.16-1.15-2.13-1.64-3.01c-0.49-0.88-0.96-1.61-1.37-2.19c-0.79-1.18-1.23-1.83-1.23-1.83s0.42,0.66,1.18,1.86
				C335.61,241.24,336.07,241.98,336.53,242.87z"/>
			<path class="st3" d="M345.8,268.32c0,0-0.43-5.11-1.21-11.39c-0.79-6.28-1.63-11.34-1.63-11.34s0.43,5.11,1.21,11.39
				C344.95,263.26,345.8,268.32,345.8,268.32z"/>
			<path class="st3" d="M439.73,256.44c-0.82,0.12-1.71,0.28-2.67,0.44c-1.91,0.34-4.1,0.65-6.49,1.21
				c-1.19,0.26-2.45,0.53-3.75,0.81c-1.3,0.29-2.64,0.68-4.03,1.04c-2.8,0.68-5.72,1.64-8.8,2.61c-6.13,2.07-12.75,4.69-19.46,7.97
				c-6.69,3.33-12.8,6.99-18.17,10.59c-2.64,1.86-5.19,3.59-7.43,5.4c-1.13,0.89-2.25,1.71-3.28,2.56c-1.02,0.86-2,1.69-2.93,2.48
				c-1.9,1.55-3.47,3.1-4.91,4.41c-0.71,0.66-1.38,1.27-1.98,1.85c-0.58,0.59-1.12,1.13-1.6,1.62c-1.91,1.95-2.97,3.03-2.97,3.03
				s1.08-1.06,3.02-2.98c0.49-0.48,1.03-1.01,1.62-1.6c0.6-0.57,1.28-1.17,2-1.82c1.45-1.29,3.04-2.82,4.95-4.35
				c0.94-0.78,1.92-1.6,2.95-2.45c1.03-0.85,2.16-1.65,3.29-2.53c2.25-1.78,4.8-3.49,7.45-5.33c5.39-3.55,11.49-7.18,18.16-10.5
				c6.69-3.27,13.29-5.9,19.39-8.01c3.07-0.98,5.98-1.96,8.77-2.67c1.39-0.37,2.71-0.77,4.01-1.07c1.3-0.3,2.55-0.58,3.74-0.85
				c2.37-0.59,4.56-0.92,6.46-1.28c0.96-0.17,1.84-0.35,2.66-0.48c0.82-0.11,1.58-0.22,2.25-0.31c2.71-0.37,4.2-0.58,4.2-0.58
				s-1.5,0.18-4.21,0.51C441.31,256.25,440.55,256.34,439.73,256.44z"/>
			<path class="st3" d="M440.3,250.62c-1.5,0.21-3.21,0.38-5.08,0.74c-0.94,0.16-1.92,0.33-2.94,0.51
				c-1.02,0.18-2.07,0.43-3.17,0.66c-2.2,0.43-4.5,1.06-6.94,1.69c-4.84,1.36-10.11,3.09-15.48,5.3c-5.36,2.24-10.31,4.74-14.69,7.2
				c-2.17,1.28-4.24,2.47-6.1,3.72c-0.93,0.61-1.86,1.18-2.71,1.77c-0.85,0.6-1.66,1.17-2.44,1.72c-1.57,1.07-2.91,2.16-4.11,3.07
				c-1.21,0.91-2.21,1.73-3.02,2.43c-1.63,1.37-2.53,2.12-2.53,2.12s0.92-0.74,2.57-2.07c0.82-0.67,1.84-1.49,3.06-2.37
				c1.22-0.89,2.57-1.95,4.15-3c0.78-0.54,1.6-1.1,2.46-1.69c0.86-0.58,1.78-1.14,2.72-1.74c1.87-1.22,3.95-2.39,6.12-3.65
				c4.39-2.43,9.34-4.89,14.68-7.12c5.36-2.2,10.6-3.95,15.42-5.35c2.43-0.64,4.72-1.29,6.91-1.75c1.09-0.24,2.14-0.5,3.15-0.7
				c1.02-0.19,2-0.37,2.93-0.55c1.86-0.38,3.57-0.58,5.06-0.81c1.49-0.24,2.78-0.38,3.84-0.49c2.11-0.23,3.28-0.35,3.28-0.35
				s-1.17,0.1-3.29,0.29C443.09,250.28,441.79,250.41,440.3,250.62z"/>
			<path class="st3" d="M457.64,223.02c-0.71,0.01-1.49,0.06-2.32,0.09c-1.67,0.09-3.57,0.1-5.66,0.36
				c-1.05,0.11-2.14,0.22-3.28,0.34c-1.14,0.12-2.31,0.36-3.54,0.54c-2.45,0.33-5.02,0.96-7.74,1.56
				c-5.39,1.37-11.23,3.25-17.12,5.82c-5.86,2.63-11.19,5.67-15.83,8.74c-2.27,1.6-4.46,3.09-6.36,4.67
				c-0.96,0.78-1.92,1.49-2.78,2.25c-0.86,0.76-1.68,1.5-2.46,2.2c-1.6,1.36-2.89,2.77-4.08,3.94c-0.58,0.6-1.14,1.14-1.63,1.66
				c-0.47,0.54-0.9,1.03-1.29,1.47c-1.55,1.77-2.41,2.74-2.41,2.74s0.87-0.96,2.46-2.7c0.39-0.43,0.83-0.92,1.31-1.45
				c0.49-0.52,1.06-1.05,1.65-1.63c1.2-1.15,2.51-2.54,4.13-3.88c0.79-0.69,1.62-1.41,2.48-2.16c0.87-0.75,1.83-1.45,2.8-2.21
				c1.91-1.56,4.11-3.02,6.38-4.61c4.65-3.02,9.96-6.03,15.8-8.65c5.87-2.56,11.67-4.46,17.03-5.86c2.7-0.62,5.26-1.26,7.7-1.62
				c1.22-0.2,2.38-0.44,3.52-0.58c1.14-0.13,2.23-0.26,3.27-0.38c2.08-0.29,3.98-0.33,5.64-0.44c0.83-0.04,1.61-0.11,2.32-0.12
				c0.71,0,1.37,0,1.95,0c2.35,0,3.65,0,3.65,0s-1.3-0.02-3.65-0.07C459.01,223.05,458.35,223.04,457.64,223.02z"/>
			<path class="st3" d="M415.08,231.02c3.39-1.98,6.04-3.77,6.04-3.77s-2.86,1.43-6.25,3.41c-3.39,1.98-6.04,3.77-6.04,3.77
				S411.69,233.01,415.08,231.02z"/>
			<path class="st3" d="M407.36,299.98c-2-0.15-4.39-0.22-7.04-0.18c-2.65,0.07-5.57,0.26-8.6,0.66c-3.04,0.42-5.9,1-8.47,1.63
				c-2.57,0.66-4.86,1.35-6.75,2.03c-1.89,0.67-3.4,1.26-4.43,1.71c-1.03,0.44-1.6,0.69-1.6,0.69s0.58-0.22,1.62-0.63
				c1.04-0.41,2.57-0.96,4.47-1.57c1.9-0.62,4.19-1.27,6.76-1.88c2.57-0.59,5.43-1.14,8.45-1.56c3.02-0.4,5.92-0.62,8.56-0.73
				c2.64-0.08,5.02-0.07,7.02,0.03c2,0.09,3.61,0.21,4.73,0.34c1.11,0.11,1.73,0.18,1.73,0.18s-0.61-0.09-1.72-0.24
				C410.97,300.29,409.36,300.12,407.36,299.98z"/>
			<path class="st3" d="M361.57,313.35c0,0,2.82-0.65,6.23-1.7c3.41-1.05,6.11-2.1,6.11-2.1s-2.82,0.65-6.23,1.7
				C364.27,312.3,361.57,313.35,361.57,313.35z"/>
			<path class="st3" d="M334.67,301.2c0.82-2.7,1.62-6.55,1.76-10.87c0.13-4.32-0.42-8.22-1.06-10.96
				c-0.32-1.37-0.62-2.47-0.87-3.22c-0.24-0.75-0.38-1.16-0.38-1.16s0.11,0.42,0.31,1.18c0.21,0.76,0.47,1.87,0.73,3.25
				c0.54,2.76,0.98,6.63,0.85,10.9c-0.14,4.28-0.84,8.11-1.55,10.83c-0.35,1.36-0.68,2.45-0.94,3.19c-0.25,0.75-0.39,1.16-0.39,1.16
				s0.16-0.4,0.45-1.14C333.89,303.63,334.27,302.56,334.67,301.2z"/>
			<path class="st3" d="M348.86,221c0.37,0.83,0.85,1.75,1.24,2.83c0.43,1.06,0.89,2.23,1.29,3.51c0.46,1.27,0.81,2.66,1.21,4.12
				c0.71,2.94,1.3,6.21,1.59,9.69c0.26,3.48,0.19,6.81-0.04,9.82c-0.17,1.5-0.29,2.93-0.55,4.26c-0.19,1.33-0.46,2.56-0.72,3.67
				c-0.22,1.12-0.54,2.11-0.78,2.99c-0.23,0.88-0.48,1.62-0.7,2.23c-0.42,1.21-0.65,1.88-0.65,1.88s0.25-0.66,0.71-1.86
				c0.24-0.6,0.51-1.33,0.76-2.21c0.26-0.87,0.61-1.86,0.86-2.98c0.28-1.11,0.58-2.34,0.8-3.67c0.28-1.33,0.43-2.76,0.62-4.27
				c0.28-3.03,0.37-6.38,0.11-9.89c-0.3-3.5-0.91-6.8-1.67-9.75c-0.42-1.46-0.8-2.86-1.28-4.12c-0.42-1.28-0.91-2.45-1.37-3.5
				c-0.42-1.07-0.92-1.98-1.32-2.81c-0.39-0.83-0.78-1.51-1.1-2.06c-0.64-1.11-1-1.73-1-1.73s0.33,0.63,0.94,1.76
				C348.13,219.47,348.49,220.16,348.86,221z"/>
			<path class="st3" d="M375.42,217.01c-0.19,0.4-0.29,0.63-0.29,0.63s0.12-0.21,0.35-0.6c0.23-0.38,0.52-0.96,0.81-1.71
				c0.59-1.48,1.09-3.7,0.94-6.16c-0.17-2.46-0.96-4.59-1.74-5.98c-0.39-0.7-0.75-1.24-1.03-1.59c-0.27-0.35-0.42-0.55-0.42-0.55
				s0.13,0.21,0.37,0.58c0.25,0.37,0.56,0.93,0.89,1.64c0.68,1.42,1.34,3.52,1.51,5.91c0.15,2.39-0.23,4.56-0.71,6.06
				C375.85,216.01,375.61,216.61,375.42,217.01z"/>
		</g>
		<g>
			<g>
				<path class="st4" d="M471.44,18.79c-7.88,21.76-14.97,43.79-22.98,65.52c-8.16,22.15-16.86,44.09-25.97,65.86
					c-17.84,42.61-38.25,84.23-61.19,124.33c-42.87,74.94-96.28,144.71-160.1,203.04c-35.43,32.39-74.41,60.89-115.39,85.86
					c-1.34,0.82-0.07,2.78,1.28,2.04c75.34-40.5,139.98-100.3,193.74-166.34c57.36-70.47,102.1-150.35,138.94-233.17
					c10.38-23.34,20.06-46.96,29.14-70.83c9.45-24.83,18.87-49.88,26.38-75.38C476.03,17.23,472.29,16.45,471.44,18.79z"/>
				<path class="st3" d="M278.56,397.46C336.54,326.23,381.76,245.49,419,161.78c10.49-23.59,20.27-47.46,29.45-71.59
					c9.12-23.97,18.19-48.14,25.6-72.71c-0.97-0.26-2.18,0.11-2.61,1.32c-7.88,21.76-14.97,43.79-22.98,65.52
					c-8.16,22.15-16.86,44.09-25.97,65.86c-17.84,42.61-38.25,84.23-61.19,124.33c-42.87,74.94-96.28,144.71-160.1,203.04
					c-35.43,32.39-74.41,60.89-115.39,85.86c-0.35,0.21-0.52,0.5-0.56,0.8C160.33,523.3,224.83,463.48,278.56,397.46z"/>
				
					<radialGradient id="SVGID_1_" cx="469.5995" cy="105.7483" r="499.9538" gradientTransform="matrix(0.9995 -0.0317 0.0317 0.9995 -9.292 8.916)" gradientUnits="userSpaceOnUse">
					<stop  offset="0.5744" style="stop-color:#000000;stop-opacity:0"/>
					<stop  offset="0.7977" style="stop-color:#000000;stop-opacity:0.6512"/>
					<stop  offset="1" style="stop-color:#000000;stop-opacity:0.95"/>
				</radialGradient>
				<path class="st5" d="M471.44,18.79c-7.88,21.76-14.97,43.79-22.98,65.52c-8.16,22.15-16.86,44.09-25.97,65.86
					c-17.84,42.61-38.25,84.23-61.19,124.33c-42.87,74.94-96.28,144.71-160.1,203.04c-35.43,32.39-74.41,60.89-115.39,85.86
					c-1.34,0.82-0.07,2.78,1.28,2.04c75.34-40.5,139.98-100.3,193.74-166.34c57.36-70.47,102.1-150.35,138.94-233.17
					c10.38-23.34,20.06-46.96,29.14-70.83c9.45-24.83,18.87-49.88,26.38-75.38C476.03,17.23,472.29,16.45,471.44,18.79z"/>
				<g>
					<path class="st6" d="M85.87,563.49c17.31-9.67,33.83-21.02,49.88-32.64c15.67-11.35,30.98-23.27,45.73-35.79
						c0.09-0.08-0.04-0.25-0.14-0.17c-15.11,12.35-30.32,24.53-46.14,35.97c-16.02,11.58-32.63,22.07-49.43,32.46
						C85.66,563.39,85.76,563.55,85.87,563.49L85.87,563.49z"/>
				</g>
				<g>
					<path class="st6" d="M97.27,559.7c10.54-5.55,20.73-11.98,30.65-18.55c9.94-6.59,19.76-13.49,29.05-20.98
						c0.15-0.12,0-0.38-0.16-0.26c-9.59,7.14-19.18,14.22-29.13,20.85c-9.96,6.64-20.21,12.7-30.44,18.88
						C97.19,559.66,97.23,559.72,97.27,559.7L97.27,559.7z"/>
				</g>
				<g>
					<path class="st6" d="M160.24,517.77c1.96-1.42,3.92-2.85,5.81-4.37c0.05-0.04,0-0.13-0.06-0.09c-2,1.37-3.93,2.84-5.85,4.3
						C160.05,517.69,160.14,517.84,160.24,517.77L160.24,517.77z"/>
				</g>
			</g>
			<g>
				<path class="st3" d="M271.3,407.39c-12.49,12.71-24.39,26.06-36.52,39.12c-0.03,0.04,0.02,0.09,0.06,0.05
					c12.22-12.98,24.75-25.74,36.59-39.06C271.5,407.43,271.37,407.32,271.3,407.39z"/>
				<path class="st3" d="M349.08,299.08c-17.98,30-37.33,58.89-58.98,86.38c-0.09,0.11,0.07,0.26,0.16,0.15
					c21.77-27.17,41.87-56.11,58.96-86.46C349.26,299.06,349.13,298.99,349.08,299.08z"/>
				<path class="st3" d="M410.21,183.61c-11.53,23.14-22.4,46.64-33.41,70.03c-0.02,0.05,0.05,0.09,0.07,0.04
					c11.28-23.26,22.73-46.49,33.48-69.99C410.39,183.59,410.25,183.51,410.21,183.61z"/>
				<path class="st3" d="M467.98,36.53c-3.95,10.83-7.4,21.92-10.86,32.92c-0.04,0.14,0.17,0.19,0.22,0.05
					c3.77-10.9,7.6-21.86,10.87-32.92C468.25,36.43,468.03,36.39,467.98,36.53z"/>
			</g>
		</g>
		<path class="st7" d="M185.09,486.9c0.1,1.02,0.15,2.06,0.19,3.1c0.16-0.16,0.35-0.35,0.54-0.55c0.08-0.47,0.14-0.93,0.22-1.4
			c-0.12-0.26-0.23-0.51-0.36-0.77C185.49,487.15,185.29,487.03,185.09,486.9z"/>
		<path class="st7" d="M185.32,491.28c0.06,0.08,0.11,0.15,0.17,0.23c0.08-0.52,0.17-1.04,0.25-1.56c-0.17,0.12-0.32,0.23-0.45,0.33
			C185.3,490.62,185.32,490.95,185.32,491.28z"/>
		<path class="st7" d="M208.48,496.31c-6.01,1.19-12.08,2.13-18.17,2.81c3.7-0.06,7.4-0.19,11.11-0.6
			c4.43-0.49,8.83-1.24,13.19-2.19C212.57,496.29,210.53,496.26,208.48,496.31z"/>
		<path class="st7" d="M202.47,500.11c0.9-0.06,1.81-0.15,2.72-0.26c4.09-0.51,8.14-1.3,12.11-2.42c1.11-0.31,2.2-0.68,3.29-1.07
			c-0.05,0-0.1,0-0.16,0C214.66,498.02,208.6,499.33,202.47,500.11z"/>
		<path class="st7" d="M175.67,495.66c-2.07-0.18-3.92,0.71-5.47,2.01c2.42-0.79,5.14-0.78,7.58-0.03
			c-0.03-0.02-0.06-0.05-0.08-0.07C177.02,497.02,176.12,496.45,175.67,495.66z"/>
		<path class="st7" d="M436.18,204.19c0.77-0.17,1.55-0.33,2.35-0.46c0.4-0.06,0.79-0.11,1.18-0.16c-0.53-0.07-1.06-0.13-1.62-0.17
			c-0.48,0.14-0.96,0.28-1.42,0.42C436.5,203.95,436.34,204.07,436.18,204.19z"/>
		<path class="st7" d="M372.05,174.39c-0.39,0.28-0.66,0.55-0.86,0.71c-0.21,0.18-0.32,0.27-0.32,0.27s0.08-0.12,0.24-0.34
			c0.09-0.12,0.21-0.29,0.34-0.48c-0.15,0.04-0.29,0.07-0.44,0.11c-4.32,1.3-7.99,3.45-10.82,5.66c0.85-0.23,1.71-0.43,2.57-0.6
			c3.84-2.34,8.01-4.54,12.31-5.98C374.07,173.9,373.06,174.12,372.05,174.39z"/>
		<path class="st7" d="M211.07,495.77c1.93,0.01,3.85,0.05,5.77,0.08c1.67-0.4,3.34-0.83,4.99-1.29c6.2-1.74,12.24-4.04,18.06-6.81
			c-1.4,0.46-2.81,0.9-4.23,1.34C227.6,491.78,219.38,494.01,211.07,495.77z"/>
		<path class="st7" d="M183.05,490.92c-0.25-0.2-0.52-0.38-0.81-0.55c0.26,1.53,0.44,3.13,0.52,4.75c0.09,0.18,0.17,0.36,0.25,0.54
			c0.33-0.53,0.7-1.11,1.08-1.71c-0.01-0.06-0.01-0.11-0.02-0.17C183.89,492.8,183.55,491.85,183.05,490.92z"/>
		<path class="st7" d="M388.87,171.52c-3.49-1.21-7.06-1.09-9.97-0.39c0.31,0.01,0.61,0.02,0.91,0.04c2.03,0.13,3.88,0.48,5.52,0.92
			c3.99,0.24,7.37,1.99,10.08,4.61c-0.54-0.92-1.18-1.79-1.87-2.61C392.2,173.05,390.64,172.14,388.87,171.52z"/>
		<path class="st7" d="M439.24,200.52c0.49-0.39,1-0.79,1.55-1.18c-2.24,0.86-4.43,1.81-6.56,2.86
			C435.82,201.56,437.49,201,439.24,200.52z"/>
		<path class="st7" d="M385.15,168.28c-1.24-0.35-2.56-0.58-3.94-0.66c-5.51-0.29-10.42,1.87-13.33,4.16
			c-0.76,0.55-1.35,1.16-1.91,1.67c-0.34,0.37-0.63,0.7-0.9,1.01c1.59-0.88,3.33-1.65,5.2-2.22c1.53-0.45,3.07-0.75,4.56-0.93
			c0.1-0.07,0.19-0.14,0.3-0.22c1.58-1.07,3.7-2.05,6.23-2.53C382.55,168.33,383.83,168.23,385.15,168.28z"/>
		<path class="st7" d="M417.92,212.71c0.22-0.21,0.45-0.43,0.68-0.65c-0.38,0.3-0.77,0.59-1.15,0.9
			C417.61,212.87,417.77,212.79,417.92,212.71z"/>
		<path class="st7" d="M284.13,385.79c-1.35,0-2.96,0.09-4.71,0.27c-1.75,0.2-3.65,0.49-5.63,0.91c-1.97,0.44-3.82,0.96-5.5,1.5
			c-1.22,0.42-2.35,0.84-3.35,1.25c6.14-2.39,12.65-3.67,19.39-3.45c-0.04-0.16-0.07-0.32-0.11-0.48
			C284.19,385.79,284.16,385.79,284.13,385.79z"/>
		<polygon class="st7" points="328.15,375.85 328.15,375.85 328.15,375.85 		"/>
		<path class="st7" d="M434.95,204.5c0.05-0.05,0.09-0.1,0.15-0.16c-0.4,0.14-0.8,0.28-1.19,0.43
			C434.24,204.67,434.6,204.59,434.95,204.5z"/>
	</g>
</g>
</svg>
